{"asset":{"version":"2.0","generator":"Blockbench 4.12.2 glTF exporter"},"scenes":[{"nodes":[5],"name":"blockbench_export"}],"scene":0,"nodes":[{"translation":[0.9875,0,-0.94375],"name":"baranda_borde","mesh":0},{"translation":[0.875,0.71875,-1],"name":"metal_thingy_borde","mesh":1},{"translation":[0.875,0.09375,-1],"name":"metal_thingy_borde2","mesh":2},{"translation":[0,0.09375,-0.09375],"name":"metal_thingy_borde3","mesh":3},{"translation":[0,0.71875,-0.09375],"name":"metal_thingy_borde4","mesh":4},{"children":[0,1,2,3,4]}],"bufferViews":[{"buffer":0,"byteOffset":0,"byteLength":4896,"target":34962,"byteStride":12},{"buffer":0,"byteOffset":4896,"byteLength":4896,"target":34962,"byteStride":12},{"buffer":0,"byteOffset":9792,"byteLength":3264,"target":34962,"byteStride":8},{"buffer":0,"byteOffset":13056,"byteLength":1224,"target":34963},{"buffer":0,"byteOffset":14280,"byteLength":288,"target":34962,"byteStride":12},{"buffer":0,"byteOffset":14568,"byteLength":288,"target":34962,"byteStride":12},{"buffer":0,"byteOffset":14856,"byteLength":192,"target":34962,"byteStride":8},{"buffer":0,"byteOffset":15048,"byteLength":72,"target":34963},{"buffer":0,"byteOffset":15120,"byteLength":288,"target":34962,"byteStride":12},{"buffer":0,"byteOffset":15408,"byteLength":288,"target":34962,"byteStride":12},{"buffer":0,"byteOffset":15696,"byteLength":192,"target":34962,"byteStride":8},{"buffer":0,"byteOffset":15888,"byteLength":72,"target":34963},{"buffer":0,"byteOffset":15960,"byteLength":288,"target":34962,"byteStride":12},{"buffer":0,"byteOffset":16248,"byteLength":288,"target":34962,"byteStride":12},{"buffer":0,"byteOffset":16536,"byteLength":192,"target":34962,"byteStride":8},{"buffer":0,"byteOffset":16728,"byteLength":72,"target":34963},{"buffer":0,"byteOffset":16800,"byteLength":288,"target":34962,"byteStride":12},{"buffer":0,"byteOffset":17088,"byteLength":288,"target":34962,"byteStride":12},{"buffer":0,"byteOffset":17376,"byteLength":192,"target":34962,"byteStride":8},{"buffer":0,"byteOffset":17568,"byteLength":72,"target":34963}],"buffers":[{"byteLength":17640,"uri":"data:application/octet-stream;base64,"}],"accessors":[{"bufferView":0,"componentType":5126,"count":408,"max":[0.010797425173223019,1,0.948337197303772],"min":[-0.9892025589942932,0,-0.05166277661919594],"type":"VEC3"},{"bufferView":1,"componentType":5126,"count":408,"max":[1,1,1],"min":[-1,-1,-1],"type":"VEC3"},{"bufferView":2,"componentType":5126,"count":408,"max":[0.7166101336479187,0.75],"min":[0,0],"type":"VEC2"},{"bufferView":3,"componentType":5123,"count":612,"max":[407],"min":[0],"type":"SCALAR"},{"bufferView":4,"componentType":5126,"count":24,"max":[0.03125,0.0625,0.03125],"min":[-0.03125,0,-0.03125],"type":"VEC3"},{"bufferView":5,"componentType":5126,"count":24,"max":[1,1,1],"min":[-1,-1,-1],"type":"VEC3"},{"bufferView":6,"componentType":5126,"count":24,"max":[0.625,0.625],"min":[0,0],"type":"VEC2"},{"bufferView":7,"componentType":5123,"count":36,"max":[23],"min":[0],"type":"SCALAR"},{"bufferView":8,"componentType":5126,"count":24,"max":[0.03125,0.0625,0.03125],"min":[-0.03125,0,-0.03125],"type":"VEC3"},{"bufferView":9,"componentType":5126,"count":24,"max":[1,1,1],"min":[-1,-1,-1],"type":"VEC3"},{"bufferView":10,"componentType":5126,"count":24,"max":[0.125,0.125],"min":[0,0],"type":"VEC2"},{"bufferView":11,"componentType":5123,"count":36,"max":[23],"min":[0],"type":"SCALAR"},{"bufferView":12,"componentType":5126,"count":24,"max":[0.03125,0.0625,0.03125],"min":[-0.03125,0,-0.03125],"type":"VEC3"},{"bufferView":13,"componentType":5126,"count":24,"max":[1,1,1],"min":[-1,-1,-1],"type":"VEC3"},{"bufferView":14,"componentType":5126,"count":24,"max":[0.125,0.125],"min":[0,0],"type":"VEC2"},{"bufferView":15,"componentType":5123,"count":36,"max":[23],"min":[0],"type":"SCALAR"},{"bufferView":16,"componentType":5126,"count":24,"max":[0.03125,0.0625,0.03125],"min":[-0.03125,0,-0.03125],"type":"VEC3"},{"bufferView":17,"componentType":5126,"count":24,"max":[1,1,1],"min":[-1,-1,-1],"type":"VEC3"},{"bufferView":18,"componentType":5126,"count":24,"max":[0.125,0.125],"min":[0,0],"type":"VEC2"},{"bufferView":19,"componentType":5123,"count":36,"max":[23],"min":[0],"type":"SCALAR"}],"materials":[{"pbrMetallicRoughness":{"metallicFactor":0,"roughnessFactor":1,"baseColorTexture":{"index":0}},"alphaMode":"MASK","alphaCutoff":0.05,"doubleSided":true},{"pbrMetallicRoughness":{"metallicFactor":0,"roughnessFactor":1,"baseColorTexture":{"index":1}},"alphaMode":"MASK","alphaCutoff":0.05,"doubleSided":true}],"textures":[{"sampler":0,"source":0,"name":"baranda_borde"},{"sampler":1,"source":1,"name":"metal_thingy_borde"}],"samplers":[{"magFilter":9728,"minFilter":9728,"wrapS":33071,"wrapT":33071},{"magFilter":9728,"minFilter":9728,"wrapS":33071,"wrapT":33071}],"images":[{"mimeType":"image/png","uri":"data:image/png;base64,"},{"mimeType":"image/png","uri":"data:image/png;base64,"}],"meshes":[{"primitives":[{"mode":4,"attributes":{"POSITION":0,"NORMAL":1,"TEXCOORD_0":2},"indices":3,"material":0}]},{"primitives":[{"mode":4,"attributes":{"POSITION":4,"NORMAL":5,"TEXCOORD_0":6},"indices":7,"material":1}]},{"primitives":[{"mode":4,"attributes":{"POSITION":8,"NORMAL":9,"TEXCOORD_0":10},"indices":11,"material":1}]},{"primitives":[{"mode":4,"attributes":{"POSITION":12,"NORMAL":13,"TEXCOORD_0":14},"indices":15,"material":1}]},{"primitives":[{"mode":4,"attributes":{"POSITION":16,"NORMAL":17,"TEXCOORD_0":18},"indices":19,"material":1}]}]}