{"asset":{"version":"2.0","generator":"Blockbench 4.11.2 glTF exporter"},"scenes":[{"nodes":[9],"name":"blockbench_export"}],"scene":0,"nodes":[{"name":"glass pane","mesh":0},{"name":"glass","children":[0]},{"translation":[0,-0.000625,0],"name":"water block","mesh":1},{"name":"water","children":[2]},{"rotation":[0,-1,0,6.123233995736766e-17],"translation":[-1.4375,0.8125,1.5625],"name":"fish 1","mesh":2},{"translation":[-0.6875,0.125,-0.3125],"name":"fish 4","mesh":3},{"rotation":[0,-1,0,6.123233995736766e-17],"translation":[0.8125,1.875,-1.6875],"name":"fish 3","mesh":4},{"translation":[1.3125,1.3125,1.1875],"name":"fish 2","mesh":5},{"name":"fish","children":[4,5,6,7]},{"children":[1,3,8]}],"bufferViews":[{"buffer":0,"byteOffset":0,"byteLength":288,"target":34962,"byteStride":12},{"buffer":0,"byteOffset":288,"byteLength":288,"target":34962,"byteStride":12},{"buffer":0,"byteOffset":576,"byteLength":192,"target":34962,"byteStride":8},{"buffer":0,"byteOffset":768,"byteLength":72,"target":34963},{"buffer":0,"byteOffset":840,"byteLength":288,"target":34962,"byteStride":12},{"buffer":0,"byteOffset":1128,"byteLength":288,"target":34962,"byteStride":12},{"buffer":0,"byteOffset":1416,"byteLength":192,"target":34962,"byteStride":8},{"buffer":0,"byteOffset":1608,"byteLength":72,"target":34963},{"buffer":0,"byteOffset":1680,"byteLength":3360,"target":34962,"byteStride":12},{"buffer":0,"byteOffset":5040,"byteLength":3360,"target":34962,"byteStride":12},{"buffer":0,"byteOffset":8400,"byteLength":2240,"target":34962,"byteStride":8},{"buffer":0,"byteOffset":10640,"byteLength":840,"target":34963},{"buffer":0,"byteOffset":11480,"byteLength":3360,"target":34962,"byteStride":12},{"buffer":0,"byteOffset":14840,"byteLength":3360,"target":34962,"byteStride":12},{"buffer":0,"byteOffset":18200,"byteLength":2240,"target":34962,"byteStride":8},{"buffer":0,"byteOffset":20440,"byteLength":840,"target":34963},{"buffer":0,"byteOffset":21280,"byteLength":3360,"target":34962,"byteStride":12},{"buffer":0,"byteOffset":24640,"byteLength":3360,"target":34962,"byteStride":12},{"buffer":0,"byteOffset":28000,"byteLength":2240,"target":34962,"byteStride":8},{"buffer":0,"byteOffset":30240,"byteLength":840,"target":34963},{"buffer":0,"byteOffset":31080,"byteLength":3360,"target":34962,"byteStride":12},{"buffer":0,"byteOffset":34440,"byteLength":3360,"target":34962,"byteStride":12},{"buffer":0,"byteOffset":37800,"byteLength":2240,"target":34962,"byteStride":8},{"buffer":0,"byteOffset":40040,"byteLength":840,"target":34963}],"buffers":[{"byteLength":40880,"uri":"data:application/octet-stream;base64,"}],"accessors":[{"bufferView":0,"componentType":5126,"count":24,"max":[2.5,3,2.5],"min":[-2.5,0,-2.5],"type":"VEC3"},{"bufferView":1,"componentType":5126,"count":24,"max":[1,1,1],"min":[-1,-1,-1],"type":"VEC3"},{"bufferView":2,"componentType":5126,"count":24,"max":[0.62890625,0.76171875],"min":[0,0],"type":"VEC2"},{"bufferView":3,"componentType":5123,"count":36,"max":[23],"min":[0],"type":"SCALAR"},{"bufferView":4,"componentType":5126,"count":24,"max":[2.375,2.875,2.375],"min":[-2.375,0,-2.375],"type":"VEC3"},{"bufferView":5,"componentType":5126,"count":24,"max":[1,1,1],"min":[-1,-1,-1],"type":"VEC3"},{"bufferView":6,"componentType":5126,"count":24,"max":[0.59765625,0.73046875],"min":[0,0],"type":"VEC2"},{"bufferView":7,"componentType":5123,"count":36,"max":[23],"min":[0],"type":"SCALAR"},{"bufferView":8,"componentType":5126,"count":280,"max":[0.3125,0.46875,0.03125],"min":[-0.3125,0.15625,-0.03125],"type":"VEC3"},{"bufferView":9,"componentType":5126,"count":280,"max":[1,1,1],"min":[-1,-1,-1],"type":"VEC3"},{"bufferView":10,"componentType":5126,"count":280,"max":[0.51171875,0.4487031102180481],"min":[0,0],"type":"VEC2"},{"bufferView":11,"componentType":5123,"count":420,"max":[279],"min":[0],"type":"SCALAR"},{"bufferView":12,"componentType":5126,"count":280,"max":[0.3125,0.46875,0.03125],"min":[-0.3125,0.15625,-0.03125],"type":"VEC3"},{"bufferView":13,"componentType":5126,"count":280,"max":[1,1,1],"min":[-1,-1,-1],"type":"VEC3"},{"bufferView":14,"componentType":5126,"count":280,"max":[0.51171875,0.4487031102180481],"min":[0,0],"type":"VEC2"},{"bufferView":15,"componentType":5123,"count":420,"max":[279],"min":[0],"type":"SCALAR"},{"bufferView":16,"componentType":5126,"count":280,"max":[0.3125,0.46875,0.03125],"min":[-0.3125,0.15625,-0.03125],"type":"VEC3"},{"bufferView":17,"componentType":5126,"count":280,"max":[1,1,1],"min":[-1,-1,-1],"type":"VEC3"},{"bufferView":18,"componentType":5126,"count":280,"max":[0.51171875,0.4487031102180481],"min":[0,0],"type":"VEC2"},{"bufferView":19,"componentType":5123,"count":420,"max":[279],"min":[0],"type":"SCALAR"},{"bufferView":20,"componentType":5126,"count":280,"max":[0.3125,0.46875,0.03125],"min":[-0.3125,0.15625,-0.03125],"type":"VEC3"},{"bufferView":21,"componentType":5126,"count":280,"max":[1,1,1],"min":[-1,-1,-1],"type":"VEC3"},{"bufferView":22,"componentType":5126,"count":280,"max":[0.51171875,0.4487031102180481],"min":[0,0],"type":"VEC2"},{"bufferView":23,"componentType":5123,"count":420,"max":[279],"min":[0],"type":"SCALAR"}],"materials":[{"pbrMetallicRoughness":{"metallicFactor":0,"roughnessFactor":1,"baseColorTexture":{"index":0}},"alphaMode":"MASK","alphaCutoff":0.05,"doubleSided":true},{"pbrMetallicRoughness":{"metallicFactor":0,"roughnessFactor":1,"baseColorTexture":{"index":1}},"alphaMode":"MASK","alphaCutoff":0.05,"doubleSided":true},{"pbrMetallicRoughness":{"metallicFactor":0,"roughnessFactor":1,"baseColorTexture":{"index":2}},"alphaMode":"MASK","alphaCutoff":0.05,"doubleSided":true},{"pbrMetallicRoughness":{"metallicFactor":0,"roughnessFactor":1,"baseColorTexture":{"index":3}},"alphaMode":"MASK","alphaCutoff":0.05,"doubleSided":true},{"pbrMetallicRoughness":{"metallicFactor":0,"roughnessFactor":1,"baseColorTexture":{"index":4}},"alphaMode":"MASK","alphaCutoff":0.05,"doubleSided":true},{"pbrMetallicRoughness":{"metallicFactor":0,"roughnessFactor":1,"baseColorTexture":{"index":5}},"alphaMode":"MASK","alphaCutoff":0.05,"doubleSided":true}],"textures":[{"sampler":0,"source":0,"name":"texture2.png"},{"sampler":1,"source":1,"name":"texture1.png"},{"sampler":2,"source":2,"name":"fish1.png"},{"sampler":3,"source":3,"name":"fish 4.png"},{"sampler":4,"source":4,"name":"fish 3.png"},{"sampler":5,"source":5,"name":"fish 2.png"}],"samplers":[{"magFilter":9728,"minFilter":9728,"wrapS":33071,"wrapT":33071},{"magFilter":9728,"minFilter":9728,"wrapS":33071,"wrapT":33071},{"magFilter":9728,"minFilter":9728,"wrapS":33071,"wrapT":33071},{"magFilter":9728,"minFilter":9728,"wrapS":33071,"wrapT":33071},{"magFilter":9728,"minFilter":9728,"wrapS":33071,"wrapT":33071},{"magFilter":9728,"minFilter":9728,"wrapS":33071,"wrapT":33071}],"images":[{"mimeType":"image/png","uri":"data:image/png;base64,"},{"mimeType":"image/png","uri":"data:image/png;base64,"},{"mimeType":"image/png","uri":"data:image/png;base64,"},{"mimeType":"image/png","uri":"data:image/png;base64,"},{"mimeType":"image/png","uri":"data:image/png;base64,"},{"mimeType":"image/png","uri":"data:image/png;base64,"}],"meshes":[{"primitives":[{"mode":4,"attributes":{"POSITION":0,"NORMAL":1,"TEXCOORD_0":2},"indices":3,"material":0}]},{"primitives":[{"mode":4,"attributes":{"POSITION":4,"NORMAL":5,"TEXCOORD_0":6},"indices":7,"material":1}]},{"primitives":[{"mode":4,"attributes":{"POSITION":8,"NORMAL":9,"TEXCOORD_0":10},"indices":11,"material":2}]},{"primitives":[{"mode":4,"attributes":{"POSITION":12,"NORMAL":13,"TEXCOORD_0":14},"indices":15,"material":3}]},{"primitives":[{"mode":4,"attributes":{"POSITION":16,"NORMAL":17,"TEXCOORD_0":18},"indices":19,"material":4}]},{"primitives":[{"mode":4,"attributes":{"POSITION":20,"NORMAL":21,"TEXCOORD_0":22},"indices":23,"material":5}]}]}