{"asset":{"version":"2.0","generator":"Blockbench 4.11.2 glTF exporter"},"scenes":[{"nodes":[6],"name":"blockbench_export"}],"scene":0,"nodes":[{"translation":[2.42861286636753e-17,0.90625,-0.018750000000000076],"name":"head","mesh":0},{"translation":[0,0.6749999999999996,0],"name":"neck","mesh":1},{"translation":[0,0.3550328379873347,0.14864476283671885],"name":"torso","mesh":2},{"rotation":[0.21298541799958967,-0.046334696959156645,0.0633801126715261,0.9738959230302731],"translation":[0.1357861203943299,0.9183630176557859,0.04710870215042868],"name":"membranes","mesh":3},{"translation":[-0.11874999999999994,0.6687499999999998,0],"name":"l_arm","mesh":4},{"translation":[0.11874999999999994,0.6687499999999998,0],"name":"r_arm","mesh":5},{"children":[0,1,2,3,4,5]}],"bufferViews":[{"buffer":0,"byteOffset":0,"byteLength":1848,"target":34962,"byteStride":12},{"buffer":0,"byteOffset":1848,"byteLength":1848,"target":34962,"byteStride":12},{"buffer":0,"byteOffset":3696,"byteLength":1232,"target":34962,"byteStride":8},{"buffer":0,"byteOffset":4928,"byteLength":420,"target":34963},{"buffer":0,"byteOffset":5348,"byteLength":840,"target":34962,"byteStride":12},{"buffer":0,"byteOffset":6188,"byteLength":840,"target":34962,"byteStride":12},{"buffer":0,"byteOffset":7028,"byteLength":560,"target":34962,"byteStride":8},{"buffer":0,"byteOffset":7588,"byteLength":168,"target":34963},{"buffer":0,"byteOffset":7756,"byteLength":18264,"target":34962,"byteStride":12},{"buffer":0,"byteOffset":26020,"byteLength":18264,"target":34962,"byteStride":12},{"buffer":0,"byteOffset":44284,"byteLength":12176,"target":34962,"byteStride":8},{"buffer":0,"byteOffset":56460,"byteLength":4428,"target":34963},{"buffer":0,"byteOffset":60888,"byteLength":6480,"target":34962,"byteStride":12},{"buffer":0,"byteOffset":67368,"byteLength":6480,"target":34962,"byteStride":12},{"buffer":0,"byteOffset":73848,"byteLength":4320,"target":34962,"byteStride":8},{"buffer":0,"byteOffset":78168,"byteLength":1584,"target":34963},{"buffer":0,"byteOffset":79752,"byteLength":3528,"target":34962,"byteStride":12},{"buffer":0,"byteOffset":83280,"byteLength":3528,"target":34962,"byteStride":12},{"buffer":0,"byteOffset":86808,"byteLength":2352,"target":34962,"byteStride":8},{"buffer":0,"byteOffset":89160,"byteLength":876,"target":34963},{"buffer":0,"byteOffset":90036,"byteLength":3528,"target":34962,"byteStride":12},{"buffer":0,"byteOffset":93564,"byteLength":3528,"target":34962,"byteStride":12},{"buffer":0,"byteOffset":97092,"byteLength":2352,"target":34962,"byteStride":8},{"buffer":0,"byteOffset":99444,"byteLength":876,"target":34963}],"buffers":[{"byteLength":100320,"uri":"data:application/octet-stream;base64,"}],"accessors":[{"bufferView":0,"componentType":5126,"count":154,"max":[0.13180944323539734,0.12250000238418579,0.11687500029802322],"min":[-0.13180944323539734,-0.07874999940395355,-0.13793158531188965],"type":"VEC3"},{"bufferView":1,"componentType":5126,"count":154,"max":[0.9338094592094421,0.9599725008010864,0.9758431315422058],"min":[-0.9338094592094421,-0.9973273873329163,-0.933162271976471],"type":"VEC3"},{"bufferView":2,"componentType":5126,"count":154,"max":[0.9379112720489502,0.6493622064590454],"min":[0.03256399929523468,0.04087454080581665],"type":"VEC2"},{"bufferView":3,"componentType":5123,"count":210,"max":[153],"min":[0],"type":"SCALAR"},{"bufferView":4,"componentType":5126,"count":70,"max":[0.027565261349081993,0.15625,0.03125],"min":[-0.027565261349081993,0.10625000298023224,-0.03468488156795502],"type":"VEC3"},{"bufferView":5,"componentType":5126,"count":70,"max":[0.9784984588623047,1,0.9922778606414795],"min":[-0.9784984588623047,-1,-0.8454651236534119],"type":"VEC3"},{"bufferView":6,"componentType":5126,"count":70,"max":[0.03468233346939087,0.1875],"min":[0,0],"type":"VEC2"},{"bufferView":7,"componentType":5123,"count":84,"max":[69],"min":[0],"type":"SCALAR"},{"bufferView":8,"componentType":5126,"count":1522,"max":[0.11763051897287369,0.46371716260910034,0.42822760343551636],"min":[-0.11763051897287369,-0.3550328314304352,-0.31176453828811646],"type":"VEC3"},{"bufferView":9,"componentType":5126,"count":1522,"max":[1,0.9998925924301147,1],"min":[-1,-1,-0.9857003688812256],"type":"VEC3"},{"bufferView":10,"componentType":5126,"count":1522,"max":[0.9896523952484131,0.6595967411994934],"min":[-0.00007802126492606476,-0.00009250640869140625],"type":"VEC2"},{"bufferView":11,"componentType":5123,"count":2214,"max":[1521],"min":[0],"type":"SCALAR"},{"bufferView":12,"componentType":5126,"count":540,"max":[0.08991876989603043,0.17439880967140198,0.15105608105659485],"min":[-0.32254931330680847,-0.1294199675321579,-0.1275130957365036],"type":"VEC3"},{"bufferView":13,"componentType":5126,"count":540,"max":[0.9922778606414795,0.9531190991401672,0.9292575120925903],"min":[-0.9682095050811768,-0.9531190991401672,-0.9292575120925903],"type":"VEC3"},{"bufferView":14,"componentType":5126,"count":540,"max":[1,1],"min":[0,0],"type":"VEC2"},{"bufferView":15,"componentType":5123,"count":792,"max":[539],"min":[0],"type":"SCALAR"},{"bufferView":16,"componentType":5126,"count":294,"max":[0.03750000149011612,0.10000000149011612,0.04874999821186066],"min":[-0.33680468797683716,-0.13407419621944427,-0.04937500134110451],"type":"VEC3"},{"bufferView":17,"componentType":5126,"count":294,"max":[0.9981619715690613,0.987415075302124,1],"min":[-1,-0.9986146092414856,-1],"type":"VEC3"},{"bufferView":18,"componentType":5126,"count":294,"max":[0.9896630048751831,0.6596144437789917],"min":[0,-0.00003802776336669922],"type":"VEC2"},{"bufferView":19,"componentType":5123,"count":438,"max":[293],"min":[0],"type":"SCALAR"},{"bufferView":20,"componentType":5126,"count":294,"max":[0.33680468797683716,0.10000000149011612,0.04874999821186066],"min":[-0.03750000149011612,-0.13407419621944427,-0.04937500134110451],"type":"VEC3"},{"bufferView":21,"componentType":5126,"count":294,"max":[1,0.987415075302124,1],"min":[-0.9981619715690613,-0.9986146092414856,-1],"type":"VEC3"},{"bufferView":22,"componentType":5126,"count":294,"max":[0.9896630048751831,0.6596144437789917],"min":[0,-0.00003802776336669922],"type":"VEC2"},{"bufferView":23,"componentType":5123,"count":438,"max":[293],"min":[0],"type":"SCALAR"}],"materials":[{"pbrMetallicRoughness":{"metallicFactor":0,"roughnessFactor":1},"alphaMode":"MASK","alphaCutoff":0.05,"doubleSided":true},{"pbrMetallicRoughness":{"metallicFactor":0,"roughnessFactor":1},"alphaMode":"MASK","alphaCutoff":0.05,"doubleSided":true},{"pbrMetallicRoughness":{"metallicFactor":0,"roughnessFactor":1},"alphaMode":"MASK","alphaCutoff":0.05,"doubleSided":true}],"meshes":[{"primitives":[{"mode":4,"attributes":{"POSITION":0,"NORMAL":1,"TEXCOORD_0":2},"indices":3,"material":0}]},{"primitives":[{"mode":4,"attributes":{"POSITION":4,"NORMAL":5,"TEXCOORD_0":6},"indices":7,"material":0}]},{"primitives":[{"mode":4,"attributes":{"POSITION":8,"NORMAL":9,"TEXCOORD_0":10},"indices":11,"material":1}]},{"primitives":[{"mode":4,"attributes":{"POSITION":12,"NORMAL":13,"TEXCOORD_0":14},"indices":15,"material":0}]},{"primitives":[{"mode":4,"attributes":{"POSITION":16,"NORMAL":17,"TEXCOORD_0":18},"indices":19,"material":2}]},{"primitives":[{"mode":4,"attributes":{"POSITION":20,"NORMAL":21,"TEXCOORD_0":22},"indices":23,"material":2}]}]}