{"asset":{"version":"2.0","generator":"Blockbench 4.11.2 glTF exporter"},"scenes":[{"nodes":[23],"name":"blockbench_export"}],"scene":0,"nodes":[{"translation":[2.42861286636753e-17,0.90625,-0.018750000000000076],"name":"head","mesh":0},{"translation":[-0.25625000000000003,0.9375,0],"name":"p2","mesh":1},{"translation":[-0.18125,0.825,0],"name":"p4","mesh":2},{"translation":[0.25625000000000003,0.9375,0],"name":"p3","mesh":3},{"translation":[-0.16875000000000004,1.0437499999999997,0],"name":"p6","mesh":4},{"translation":[0.18125,0.825,0],"name":"p5","mesh":5},{"translation":[0.16875000000000004,1.0437499999999997,0],"name":"p7","mesh":6},{"translation":[0,0.6749999999999996,0],"name":"neck","mesh":7},{"name":"head","children":[0,1,2,3,4,5,6,7]},{"translation":[0,0.018750000000000003,0],"name":"torso","mesh":8},{"translation":[-0.09741796560881136,0.7334639880408041,0.0014898335411020363],"name":"l_shoulder","mesh":9},{"translation":[0.09741796560881136,0.7334639880408041,0.0014898335411020363],"name":"r_shoulder","mesh":10},{"translation":[-0.09927114663303319,0.7296875,0.0032160100104951152],"name":"cylinder","mesh":11},{"translation":[0.09927114663303319,0.7296875,0.0032160100104951152],"name":"cylinder","mesh":12},{"translation":[0,0.4132787034638974,0.003297396697305237],"name":"r_hand","mesh":13},{"name":"mid_body","children":[9,10,11,12,13,14]},{"translation":[0.0625,0.39375000000000016,0.004807692307692291],"name":"hip","mesh":14},{"translation":[4.85722573273506e-17,0.33771306818181845,0.013974989258890019],"name":"l_leg","mesh":15},{"translation":[0.12499999999999994,0.33771306818181845,0.013974989258890019],"name":"r_leg","mesh":16},{"translation":[0,0.018750000000000003,0.018750000000000003],"name":"l_shoe","mesh":17},{"translation":[0.125,0.018750000000000003,0.018750000000000003],"name":"r_shoe","mesh":18},{"translation":[-0.0625,0,0],"name":"lower_body","children":[16,17,18,19,20]},{"name":"damodel","children":[8,15,21]},{"children":[22]}],"bufferViews":[{"buffer":0,"byteOffset":0,"byteLength":1848,"target":34962,"byteStride":12},{"buffer":0,"byteOffset":1848,"byteLength":1848,"target":34962,"byteStride":12},{"buffer":0,"byteOffset":3696,"byteLength":1232,"target":34962,"byteStride":8},{"buffer":0,"byteOffset":4928,"byteLength":420,"target":34963},{"buffer":0,"byteOffset":5348,"byteLength":480,"target":34962,"byteStride":12},{"buffer":0,"byteOffset":5828,"byteLength":480,"target":34962,"byteStride":12},{"buffer":0,"byteOffset":6308,"byteLength":320,"target":34962,"byteStride":8},{"buffer":0,"byteOffset":6628,"byteLength":120,"target":34963},{"buffer":0,"byteOffset":6748,"byteLength":480,"target":34962,"byteStride":12},{"buffer":0,"byteOffset":7228,"byteLength":480,"target":34962,"byteStride":12},{"buffer":0,"byteOffset":7708,"byteLength":320,"target":34962,"byteStride":8},{"buffer":0,"byteOffset":8028,"byteLength":120,"target":34963},{"buffer":0,"byteOffset":8148,"byteLength":480,"target":34962,"byteStride":12},{"buffer":0,"byteOffset":8628,"byteLength":480,"target":34962,"byteStride":12},{"buffer":0,"byteOffset":9108,"byteLength":320,"target":34962,"byteStride":8},{"buffer":0,"byteOffset":9428,"byteLength":120,"target":34963},{"buffer":0,"byteOffset":9548,"byteLength":480,"target":34962,"byteStride":12},{"buffer":0,"byteOffset":10028,"byteLength":480,"target":34962,"byteStride":12},{"buffer":0,"byteOffset":10508,"byteLength":320,"target":34962,"byteStride":8},{"buffer":0,"byteOffset":10828,"byteLength":120,"target":34963},{"buffer":0,"byteOffset":10948,"byteLength":480,"target":34962,"byteStride":12},{"buffer":0,"byteOffset":11428,"byteLength":480,"target":34962,"byteStride":12},{"buffer":0,"byteOffset":11908,"byteLength":320,"target":34962,"byteStride":8},{"buffer":0,"byteOffset":12228,"byteLength":120,"target":34963},{"buffer":0,"byteOffset":12348,"byteLength":480,"target":34962,"byteStride":12},{"buffer":0,"byteOffset":12828,"byteLength":480,"target":34962,"byteStride":12},{"buffer":0,"byteOffset":13308,"byteLength":320,"target":34962,"byteStride":8},{"buffer":0,"byteOffset":13628,"byteLength":120,"target":34963},{"buffer":0,"byteOffset":13748,"byteLength":840,"target":34962,"byteStride":12},{"buffer":0,"byteOffset":14588,"byteLength":840,"target":34962,"byteStride":12},{"buffer":0,"byteOffset":15428,"byteLength":560,"target":34962,"byteStride":8},{"buffer":0,"byteOffset":15988,"byteLength":168,"target":34963},{"buffer":0,"byteOffset":16156,"byteLength":1344,"target":34962,"byteStride":12},{"buffer":0,"byteOffset":17500,"byteLength":1344,"target":34962,"byteStride":12},{"buffer":0,"byteOffset":18844,"byteLength":896,"target":34962,"byteStride":8},{"buffer":0,"byteOffset":19740,"byteLength":336,"target":34963},{"buffer":0,"byteOffset":20076,"byteLength":936,"target":34962,"byteStride":12},{"buffer":0,"byteOffset":21012,"byteLength":936,"target":34962,"byteStride":12},{"buffer":0,"byteOffset":21948,"byteLength":624,"target":34962,"byteStride":8},{"buffer":0,"byteOffset":22572,"byteLength":216,"target":34963},{"buffer":0,"byteOffset":22788,"byteLength":936,"target":34962,"byteStride":12},{"buffer":0,"byteOffset":23724,"byteLength":936,"target":34962,"byteStride":12},{"buffer":0,"byteOffset":24660,"byteLength":624,"target":34962,"byteStride":8},{"buffer":0,"byteOffset":25284,"byteLength":216,"target":34963},{"buffer":0,"byteOffset":25500,"byteLength":1680,"target":34962,"byteStride":12},{"buffer":0,"byteOffset":27180,"byteLength":1680,"target":34962,"byteStride":12},{"buffer":0,"byteOffset":28860,"byteLength":1120,"target":34962,"byteStride":8},{"buffer":0,"byteOffset":29980,"byteLength":420,"target":34963},{"buffer":0,"byteOffset":30400,"byteLength":1680,"target":34962,"byteStride":12},{"buffer":0,"byteOffset":32080,"byteLength":1680,"target":34962,"byteStride":12},{"buffer":0,"byteOffset":33760,"byteLength":1120,"target":34962,"byteStride":8},{"buffer":0,"byteOffset":34880,"byteLength":420,"target":34963},{"buffer":0,"byteOffset":35300,"byteLength":3072,"target":34962,"byteStride":12},{"buffer":0,"byteOffset":38372,"byteLength":3072,"target":34962,"byteStride":12},{"buffer":0,"byteOffset":41444,"byteLength":2048,"target":34962,"byteStride":8},{"buffer":0,"byteOffset":43492,"byteLength":768,"target":34963},{"buffer":0,"byteOffset":44260,"byteLength":1920,"target":34962,"byteStride":12},{"buffer":0,"byteOffset":46180,"byteLength":1920,"target":34962,"byteStride":12},{"buffer":0,"byteOffset":48100,"byteLength":1280,"target":34962,"byteStride":8},{"buffer":0,"byteOffset":49380,"byteLength":480,"target":34963},{"buffer":0,"byteOffset":49860,"byteLength":1932,"target":34962,"byteStride":12},{"buffer":0,"byteOffset":51792,"byteLength":1932,"target":34962,"byteStride":12},{"buffer":0,"byteOffset":53724,"byteLength":1288,"target":34962,"byteStride":8},{"buffer":0,"byteOffset":55012,"byteLength":464,"target":34963},{"buffer":0,"byteOffset":55476,"byteLength":1932,"target":34962,"byteStride":12},{"buffer":0,"byteOffset":57408,"byteLength":1932,"target":34962,"byteStride":12},{"buffer":0,"byteOffset":59340,"byteLength":1288,"target":34962,"byteStride":8},{"buffer":0,"byteOffset":60628,"byteLength":464,"target":34963},{"buffer":0,"byteOffset":61092,"byteLength":2748,"target":34962,"byteStride":12},{"buffer":0,"byteOffset":63840,"byteLength":2748,"target":34962,"byteStride":12},{"buffer":0,"byteOffset":66588,"byteLength":1832,"target":34962,"byteStride":8},{"buffer":0,"byteOffset":68420,"byteLength":680,"target":34963},{"buffer":0,"byteOffset":69100,"byteLength":2748,"target":34962,"byteStride":12},{"buffer":0,"byteOffset":71848,"byteLength":2748,"target":34962,"byteStride":12},{"buffer":0,"byteOffset":74596,"byteLength":1832,"target":34962,"byteStride":8},{"buffer":0,"byteOffset":76428,"byteLength":680,"target":34963}],"buffers":[{"byteLength":77108,"uri":"data:application/octet-stream;base64,"}],"accessors":[{"bufferView":0,"componentType":5126,"count":154,"max":[0.13180944323539734,0.12250000238418579,0.11687500029802322],"min":[-0.13180944323539734,-0.07874999940395355,-0.13793158531188965],"type":"VEC3"},{"bufferView":1,"componentType":5126,"count":154,"max":[0.9338094592094421,0.9599725008010864,0.9758431315422058],"min":[-0.9338094592094421,-0.9973273873329163,-0.933162271976471],"type":"VEC3"},{"bufferView":2,"componentType":5126,"count":154,"max":[2.5,2.8125],"min":[0,0],"type":"VEC2"},{"bufferView":3,"componentType":5123,"count":210,"max":[153],"min":[0],"type":"SCALAR"},{"bufferView":4,"componentType":5126,"count":40,"max":[0.11249999701976776,0.01875000074505806,0.0062500000931322575],"min":[-0.11249999701976776,-0.01875000074505806,-0.0062500000931322575],"type":"VEC3"},{"bufferView":5,"componentType":5126,"count":40,"max":[1,0.9984603524208069,1],"min":[-1,-0.9984603524208069,-1],"type":"VEC3"},{"bufferView":6,"componentType":5126,"count":40,"max":[0.0625,0.5],"min":[0,0],"type":"VEC2"},{"bufferView":7,"componentType":5123,"count":60,"max":[39],"min":[0],"type":"SCALAR"},{"bufferView":8,"componentType":5126,"count":40,"max":[0.06348641216754913,0.04967277869582176,0.0062500000931322575],"min":[-0.06348641216754913,-0.04967277869582176,-0.0062500000931322575],"type":"VEC3"},{"bufferView":9,"componentType":5126,"count":40,"max":[0.8191520571708679,0.8677171468734741,1],"min":[-0.8191520571708679,-0.8677171468734741,-1],"type":"VEC3"},{"bufferView":10,"componentType":5126,"count":40,"max":[0.0625,0.5],"min":[0,0],"type":"VEC2"},{"bufferView":11,"componentType":5123,"count":60,"max":[39],"min":[0],"type":"SCALAR"},{"bufferView":12,"componentType":5126,"count":40,"max":[0.11249999701976776,0.01875000074505806,0.0062500000931322575],"min":[-0.11249999701976776,-0.01875000074505806,-0.0062500000931322575],"type":"VEC3"},{"bufferView":13,"componentType":5126,"count":40,"max":[1,0.9984603524208069,1],"min":[-1,-0.9984603524208069,-1],"type":"VEC3"},{"bufferView":14,"componentType":5126,"count":40,"max":[0.0625,0.5],"min":[0,0],"type":"VEC2"},{"bufferView":15,"componentType":5123,"count":60,"max":[39],"min":[0],"type":"SCALAR"},{"bufferView":16,"componentType":5126,"count":40,"max":[0.06578924506902695,0.04520031809806824,0.0062500000931322575],"min":[-0.06578924506902695,-0.04520031809806824,-0.0062500000931322575],"type":"VEC3"},{"bufferView":17,"componentType":5126,"count":40,"max":[0.8660253882408142,0.9077367186546326,1],"min":[-0.8660253882408142,-0.9077367186546326,-1],"type":"VEC3"},{"bufferView":18,"componentType":5126,"count":40,"max":[0.0625,0.5],"min":[0,0],"type":"VEC2"},{"bufferView":19,"componentType":5123,"count":60,"max":[39],"min":[0],"type":"SCALAR"},{"bufferView":20,"componentType":5126,"count":40,"max":[0.06348641216754913,0.04967277869582176,0.0062500000931322575],"min":[-0.06348641216754913,-0.04967277869582176,-0.0062500000931322575],"type":"VEC3"},{"bufferView":21,"componentType":5126,"count":40,"max":[0.8191520571708679,0.8677171468734741,1],"min":[-0.8191520571708679,-0.8677171468734741,-1],"type":"VEC3"},{"bufferView":22,"componentType":5126,"count":40,"max":[0.0625,0.5],"min":[0,0],"type":"VEC2"},{"bufferView":23,"componentType":5123,"count":60,"max":[39],"min":[0],"type":"SCALAR"},{"bufferView":24,"componentType":5126,"count":40,"max":[0.06578924506902695,0.04520031809806824,0.0062500000931322575],"min":[-0.06578924506902695,-0.04520031809806824,-0.0062500000931322575],"type":"VEC3"},{"bufferView":25,"componentType":5126,"count":40,"max":[0.8660253882408142,0.9077367186546326,1],"min":[-0.8660253882408142,-0.9077367186546326,-1],"type":"VEC3"},{"bufferView":26,"componentType":5126,"count":40,"max":[0.0625,0.5],"min":[0,0],"type":"VEC2"},{"bufferView":27,"componentType":5123,"count":60,"max":[39],"min":[0],"type":"SCALAR"},{"bufferView":28,"componentType":5126,"count":70,"max":[0.027565261349081993,0.15625,0.03125],"min":[-0.027565261349081993,0.10625000298023224,-0.03468488156795502],"type":"VEC3"},{"bufferView":29,"componentType":5126,"count":70,"max":[0.9784984588623047,1,0.9922778606414795],"min":[-0.9784984588623047,-1,-0.8454651236534119],"type":"VEC3"},{"bufferView":30,"componentType":5126,"count":70,"max":[0.03468233346939087,0.1875],"min":[0,0],"type":"VEC2"},{"bufferView":31,"componentType":5123,"count":84,"max":[69],"min":[0],"type":"SCALAR"},{"bufferView":32,"componentType":5126,"count":112,"max":[0.09375,0.793749988079071,0.0625],"min":[-0.09375,0.5,-0.07500000298023224],"type":"VEC3"},{"bufferView":33,"componentType":5126,"count":112,"max":[1,0.8823529481887817,0.9879826903343201],"min":[-1,-0.977992832660675,-0.9734563827514648],"type":"VEC3"},{"bufferView":34,"componentType":5126,"count":112,"max":[0.875,0.6875],"min":[0,0],"type":"VEC2"},{"bufferView":35,"componentType":5123,"count":168,"max":[111],"min":[0],"type":"SCALAR"},{"bufferView":36,"componentType":5126,"count":78,"max":[0.016895363107323647,0.029462646692991257,0.04085414856672287],"min":[-0.023293061181902885,-0.034886300563812256,-0.0410156175494194],"type":"VEC3"},{"bufferView":37,"componentType":5126,"count":78,"max":[0.9999703764915466,0.9976235628128052,0.9876399040222168],"min":[-0.829811155796051,-0.9870681762695312,-0.9895005822181702],"type":"VEC3"},{"bufferView":38,"componentType":5126,"count":78,"max":[0.125,0.125],"min":[0,0],"type":"VEC2"},{"bufferView":39,"componentType":5123,"count":108,"max":[77],"min":[0],"type":"SCALAR"},{"bufferView":40,"componentType":5126,"count":78,"max":[0.023293061181902885,0.029462646692991257,0.04085414856672287],"min":[-0.016895363107323647,-0.034886300563812256,-0.0410156175494194],"type":"VEC3"},{"bufferView":41,"componentType":5126,"count":78,"max":[0.829811155796051,0.9976235628128052,0.9876399040222168],"min":[-0.9999703764915466,-0.9870681762695312,-0.9895005822181702],"type":"VEC3"},{"bufferView":42,"componentType":5126,"count":78,"max":[0.125,0.125],"min":[0,0],"type":"VEC2"},{"bufferView":43,"componentType":5123,"count":108,"max":[77],"min":[0],"type":"SCALAR"},{"bufferView":44,"componentType":5126,"count":140,"max":[0.026785673573613167,0.032419368624687195,0.03912797197699547],"min":[-0.05849030613899231,-0.2566927671432495,-0.042741794139146805],"type":"VEC3"},{"bufferView":45,"componentType":5126,"count":140,"max":[0.9821152091026306,0.8038071393966675,1],"min":[-0.9816284775733948,-0.4765852987766266,-0.8692916631698608],"type":"VEC3"},{"bufferView":46,"componentType":5126,"count":140,"max":[0.06250238418579102,0.5],"min":[0,0],"type":"VEC2"},{"bufferView":47,"componentType":5123,"count":210,"max":[139],"min":[0],"type":"SCALAR"},{"bufferView":48,"componentType":5126,"count":140,"max":[0.05849030613899231,0.032419368624687195,0.03912797197699547],"min":[-0.026785673573613167,-0.2566927671432495,-0.042741794139146805],"type":"VEC3"},{"bufferView":49,"componentType":5126,"count":140,"max":[0.9816284775733948,0.8038071393966675,1],"min":[-0.9821152091026306,-0.4765852987766266,-0.8692916631698608],"type":"VEC3"},{"bufferView":50,"componentType":5126,"count":140,"max":[0.6875,0.8137562274932861],"min":[0,0],"type":"VEC2"},{"bufferView":51,"componentType":5123,"count":210,"max":[139],"min":[0],"type":"SCALAR"},{"bufferView":52,"componentType":5126,"count":256,"max":[0.1968701034784317,0.07683692127466202,0.03323749825358391],"min":[-0.1968701034784317,-0.06229647994041443,-0.03323749825358391],"type":"VEC3"},{"bufferView":53,"componentType":5126,"count":256,"max":[0.9751440286636353,0.9064225554466248,1],"min":[-0.9751440286636353,-0.9679203629493713,-1],"type":"VEC3"},{"bufferView":54,"componentType":5126,"count":256,"max":[0.25,0.25],"min":[0,0],"type":"VEC2"},{"bufferView":55,"componentType":5123,"count":384,"max":[255],"min":[0],"type":"SCALAR"},{"bufferView":56,"componentType":5126,"count":160,"max":[0.11215277761220932,0.17499999701976776,0.08124999701976776],"min":[-0.11215277761220932,0.08239059150218964,-0.07500000298023224],"type":"VEC3"},{"bufferView":57,"componentType":5126,"count":160,"max":[0.9633511304855347,0.9805043935775757,0.9830424189567566],"min":[-0.9717959761619568,-0.9972394704818726,-0.9858779311180115],"type":"VEC3"},{"bufferView":58,"componentType":5126,"count":160,"max":[0.1875,0.1875],"min":[0,0],"type":"VEC2"},{"bufferView":59,"componentType":5123,"count":240,"max":[159],"min":[0],"type":"SCALAR"},{"bufferView":60,"componentType":5126,"count":161,"max":[0.054862748831510544,0.1548963338136673,0.06102501228451729],"min":[-0.04888052120804787,-0.13146306574344635,-0.06459475308656693],"type":"VEC3"},{"bufferView":61,"componentType":5126,"count":161,"max":[0.9773851633071899,0.9958556890487671,1],"min":[-0.9787297248840332,-0.41351982951164246,-0.8774244785308838],"type":"VEC3"},{"bufferView":62,"componentType":5126,"count":161,"max":[0.6113812327384949,0.8125],"min":[0.009493749588727951,0],"type":"VEC2"},{"bufferView":63,"componentType":5123,"count":231,"max":[160],"min":[0],"type":"SCALAR"},{"bufferView":64,"componentType":5126,"count":161,"max":[0.04888052120804787,0.1548963338136673,0.06102501228451729],"min":[-0.054862748831510544,-0.13146306574344635,-0.06459475308656693],"type":"VEC3"},{"bufferView":65,"componentType":5126,"count":161,"max":[0.9787297248840332,0.9958556890487671,1],"min":[-0.9773851633071899,-0.41351982951164246,-0.8774244785308838],"type":"VEC3"},{"bufferView":66,"componentType":5126,"count":161,"max":[0.6113812327384949,0.8125],"min":[0.009493749588727951,0],"type":"VEC2"},{"bufferView":67,"componentType":5123,"count":231,"max":[160],"min":[0],"type":"SCALAR"},{"bufferView":68,"componentType":5126,"count":229,"max":[0.055130522698163986,0.21250000596046448,0.05000000074505806],"min":[-0.055130522698163986,-0.01875000074505806,-0.1818697601556778],"type":"VEC3"},{"bufferView":69,"componentType":5126,"count":229,"max":[0.9997457265853882,0.9867806434631348,1],"min":[-0.9997457265853882,-1,-0.919565737247467],"type":"VEC3"},{"bufferView":70,"componentType":5126,"count":229,"max":[0.112575002014637,0.1875],"min":[0,0],"type":"VEC2"},{"bufferView":71,"componentType":5123,"count":339,"max":[228],"min":[0],"type":"SCALAR"},{"bufferView":72,"componentType":5126,"count":229,"max":[0.055130522698163986,0.21250000596046448,0.05000000074505806],"min":[-0.055130522698163986,-0.01875000074505806,-0.1818697601556778],"type":"VEC3"},{"bufferView":73,"componentType":5126,"count":229,"max":[0.9997457265853882,0.9867806434631348,1],"min":[-0.9997457265853882,-1,-0.919565737247467],"type":"VEC3"},{"bufferView":74,"componentType":5126,"count":229,"max":[0.112575002014637,0.1875],"min":[0,0],"type":"VEC2"},{"bufferView":75,"componentType":5123,"count":339,"max":[228],"min":[0],"type":"SCALAR"}],"materials":[{"pbrMetallicRoughness":{"metallicFactor":0,"roughnessFactor":1},"alphaMode":"MASK","alphaCutoff":0.05,"doubleSided":true},{"pbrMetallicRoughness":{"metallicFactor":0,"roughnessFactor":1},"alphaMode":"MASK","alphaCutoff":0.05,"doubleSided":true},{"pbrMetallicRoughness":{"metallicFactor":0,"roughnessFactor":1},"alphaMode":"MASK","alphaCutoff":0.05,"doubleSided":true},{"pbrMetallicRoughness":{"metallicFactor":0,"roughnessFactor":1},"alphaMode":"MASK","alphaCutoff":0.05,"doubleSided":true}],"meshes":[{"primitives":[{"mode":4,"attributes":{"POSITION":0,"NORMAL":1,"TEXCOORD_0":2},"indices":3,"material":0}]},{"primitives":[{"mode":4,"attributes":{"POSITION":4,"NORMAL":5,"TEXCOORD_0":6},"indices":7,"material":0}]},{"primitives":[{"mode":4,"attributes":{"POSITION":8,"NORMAL":9,"TEXCOORD_0":10},"indices":11,"material":0}]},{"primitives":[{"mode":4,"attributes":{"POSITION":12,"NORMAL":13,"TEXCOORD_0":14},"indices":15,"material":0}]},{"primitives":[{"mode":4,"attributes":{"POSITION":16,"NORMAL":17,"TEXCOORD_0":18},"indices":19,"material":0}]},{"primitives":[{"mode":4,"attributes":{"POSITION":20,"NORMAL":21,"TEXCOORD_0":22},"indices":23,"material":0}]},{"primitives":[{"mode":4,"attributes":{"POSITION":24,"NORMAL":25,"TEXCOORD_0":26},"indices":27,"material":0}]},{"primitives":[{"mode":4,"attributes":{"POSITION":28,"NORMAL":29,"TEXCOORD_0":30},"indices":31,"material":0}]},{"primitives":[{"mode":4,"attributes":{"POSITION":32,"NORMAL":33,"TEXCOORD_0":34},"indices":35,"material":1}]},{"primitives":[{"mode":4,"attributes":{"POSITION":36,"NORMAL":37,"TEXCOORD_0":38},"indices":39,"material":2}]},{"primitives":[{"mode":4,"attributes":{"POSITION":40,"NORMAL":41,"TEXCOORD_0":42},"indices":43,"material":2}]},{"primitives":[{"mode":4,"attributes":{"POSITION":44,"NORMAL":45,"TEXCOORD_0":46},"indices":47,"material":2}]},{"primitives":[{"mode":4,"attributes":{"POSITION":48,"NORMAL":49,"TEXCOORD_0":50},"indices":51,"material":2}]},{"primitives":[{"mode":4,"attributes":{"POSITION":52,"NORMAL":53,"TEXCOORD_0":54},"indices":55,"material":2}]},{"primitives":[{"mode":4,"attributes":{"POSITION":56,"NORMAL":57,"TEXCOORD_0":58},"indices":59,"material":3}]},{"primitives":[{"mode":4,"attributes":{"POSITION":60,"NORMAL":61,"TEXCOORD_0":62},"indices":63,"material":3}]},{"primitives":[{"mode":4,"attributes":{"POSITION":64,"NORMAL":65,"TEXCOORD_0":66},"indices":67,"material":3}]},{"primitives":[{"mode":4,"attributes":{"POSITION":68,"NORMAL":69,"TEXCOORD_0":70},"indices":71,"material":1}]},{"primitives":[{"mode":4,"attributes":{"POSITION":72,"NORMAL":73,"TEXCOORD_0":74},"indices":75,"material":1}]}]}