{"asset":{"version":"2.0","generator":"Blockbench 4.12.2 glTF exporter"},"scenes":[{"nodes":[21],"name":"blockbench_export"}],"scene":0,"nodes":[{"name":"glass pane","mesh":0},{"name":"glass pane_selection","mesh":1},{"name":"glass","children":[0,1]},{"name":"water block_selection","mesh":2},{"name":"water block","mesh":3},{"name":"water","children":[3,4]},{"rotation":[0,-1,0,6.123233995736766e-17],"name":"fish 1","mesh":4},{"translation":[-1.4375,0.8125,1.5625],"name":"fish 1","children":[6]},{"name":"fish 2","mesh":5},{"translation":[1.3125,1.3125,1.1875],"name":"fish 2","children":[8]},{"rotation":[0,-1,0,6.123233995736766e-17],"name":"fish 3","mesh":6},{"translation":[0.8125,1.875,-1.6875],"name":"fish 3","children":[10]},{"name":"fish 4","mesh":7},{"translation":[-0.6875,0.125,-0.3125],"name":"fish 4","children":[12]},{"name":"fish","children":[7,9,11,13]},{"translation":[2,0,0.125],"name":"cuboid","mesh":8},{"translation":[-0.4375,0,-1.1875],"name":"cuboid","mesh":9},{"translation":[-2.0625,0,0.8125],"name":"cuboid","mesh":10},{"translation":[0,-0.25,1.6875],"name":"cuboid","mesh":11},{"translation":[0.9375,-0.3125,-0.5625],"name":"cuboid","mesh":12},{"name":"algae","children":[15,16,17,18,19]},{"children":[2,5,14,20]}],"bufferViews":[{"buffer":0,"byteOffset":0,"byteLength":240,"target":34962,"byteStride":12},{"buffer":0,"byteOffset":240,"byteLength":240,"target":34962,"byteStride":12},{"buffer":0,"byteOffset":480,"byteLength":160,"target":34962,"byteStride":8},{"buffer":0,"byteOffset":640,"byteLength":60,"target":34963},{"buffer":0,"byteOffset":700,"byteLength":48,"target":34962,"byteStride":12},{"buffer":0,"byteOffset":748,"byteLength":48,"target":34962,"byteStride":12},{"buffer":0,"byteOffset":796,"byteLength":32,"target":34962,"byteStride":8},{"buffer":0,"byteOffset":828,"byteLength":12,"target":34963},{"buffer":0,"byteOffset":840,"byteLength":48,"target":34962,"byteStride":12},{"buffer":0,"byteOffset":888,"byteLength":48,"target":34962,"byteStride":12},{"buffer":0,"byteOffset":936,"byteLength":32,"target":34962,"byteStride":8},{"buffer":0,"byteOffset":968,"byteLength":12,"target":34963},{"buffer":0,"byteOffset":980,"byteLength":240,"target":34962,"byteStride":12},{"buffer":0,"byteOffset":1220,"byteLength":240,"target":34962,"byteStride":12},{"buffer":0,"byteOffset":1460,"byteLength":160,"target":34962,"byteStride":8},{"buffer":0,"byteOffset":1620,"byteLength":60,"target":34963},{"buffer":0,"byteOffset":1680,"byteLength":3360,"target":34962,"byteStride":12},{"buffer":0,"byteOffset":5040,"byteLength":3360,"target":34962,"byteStride":12},{"buffer":0,"byteOffset":8400,"byteLength":2240,"target":34962,"byteStride":8},{"buffer":0,"byteOffset":10640,"byteLength":840,"target":34963},{"buffer":0,"byteOffset":11480,"byteLength":3360,"target":34962,"byteStride":12},{"buffer":0,"byteOffset":14840,"byteLength":3360,"target":34962,"byteStride":12},{"buffer":0,"byteOffset":18200,"byteLength":2240,"target":34962,"byteStride":8},{"buffer":0,"byteOffset":20440,"byteLength":840,"target":34963},{"buffer":0,"byteOffset":21280,"byteLength":3360,"target":34962,"byteStride":12},{"buffer":0,"byteOffset":24640,"byteLength":3360,"target":34962,"byteStride":12},{"buffer":0,"byteOffset":28000,"byteLength":2240,"target":34962,"byteStride":8},{"buffer":0,"byteOffset":30240,"byteLength":840,"target":34963},{"buffer":0,"byteOffset":31080,"byteLength":3360,"target":34962,"byteStride":12},{"buffer":0,"byteOffset":34440,"byteLength":3360,"target":34962,"byteStride":12},{"buffer":0,"byteOffset":37800,"byteLength":2240,"target":34962,"byteStride":8},{"buffer":0,"byteOffset":40040,"byteLength":840,"target":34963},{"buffer":0,"byteOffset":40880,"byteLength":6624,"target":34962,"byteStride":12},{"buffer":0,"byteOffset":47504,"byteLength":6624,"target":34962,"byteStride":12},{"buffer":0,"byteOffset":54128,"byteLength":4416,"target":34962,"byteStride":8},{"buffer":0,"byteOffset":58544,"byteLength":1656,"target":34963},{"buffer":0,"byteOffset":60200,"byteLength":6624,"target":34962,"byteStride":12},{"buffer":0,"byteOffset":66824,"byteLength":6624,"target":34962,"byteStride":12},{"buffer":0,"byteOffset":73448,"byteLength":4416,"target":34962,"byteStride":8},{"buffer":0,"byteOffset":77864,"byteLength":1656,"target":34963},{"buffer":0,"byteOffset":79520,"byteLength":6624,"target":34962,"byteStride":12},{"buffer":0,"byteOffset":86144,"byteLength":6624,"target":34962,"byteStride":12},{"buffer":0,"byteOffset":92768,"byteLength":4416,"target":34962,"byteStride":8},{"buffer":0,"byteOffset":97184,"byteLength":1656,"target":34963},{"buffer":0,"byteOffset":98840,"byteLength":6624,"target":34962,"byteStride":12},{"buffer":0,"byteOffset":105464,"byteLength":6624,"target":34962,"byteStride":12},{"buffer":0,"byteOffset":112088,"byteLength":4416,"target":34962,"byteStride":8},{"buffer":0,"byteOffset":116504,"byteLength":1656,"target":34963},{"buffer":0,"byteOffset":118160,"byteLength":6624,"target":34962,"byteStride":12},{"buffer":0,"byteOffset":124784,"byteLength":6624,"target":34962,"byteStride":12},{"buffer":0,"byteOffset":131408,"byteLength":4416,"target":34962,"byteStride":8},{"buffer":0,"byteOffset":135824,"byteLength":1656,"target":34963},{"buffer":0,"byteOffset":137480,"byteLength":28},{"buffer":0,"byteOffset":137508,"byteLength":84},{"buffer":0,"byteOffset":137592,"byteLength":28},{"buffer":0,"byteOffset":137620,"byteLength":112},{"buffer":0,"byteOffset":137732,"byteLength":16},{"buffer":0,"byteOffset":137748,"byteLength":48},{"buffer":0,"byteOffset":137796,"byteLength":28},{"buffer":0,"byteOffset":137824,"byteLength":112},{"buffer":0,"byteOffset":137936,"byteLength":16},{"buffer":0,"byteOffset":137952,"byteLength":48},{"buffer":0,"byteOffset":138000,"byteLength":28},{"buffer":0,"byteOffset":138028,"byteLength":112},{"buffer":0,"byteOffset":138140,"byteLength":16},{"buffer":0,"byteOffset":138156,"byteLength":48},{"buffer":0,"byteOffset":138204,"byteLength":28},{"buffer":0,"byteOffset":138232,"byteLength":112},{"buffer":0,"byteOffset":138344,"byteLength":16},{"buffer":0,"byteOffset":138360,"byteLength":48}],"buffers":[{"byteLength":138408,"uri":"data:application/octet-stream;base64,"}],"accessors":[{"bufferView":0,"componentType":5126,"count":20,"max":[2.5,3,2.5],"min":[-2.5,0,-2.5],"type":"VEC3"},{"bufferView":1,"componentType":5126,"count":20,"max":[1,1,1],"min":[-1,-1,0],"type":"VEC3"},{"bufferView":2,"componentType":5126,"count":20,"max":[0.62890625,0.62890625],"min":[0,0],"type":"VEC2"},{"bufferView":3,"componentType":5123,"count":30,"max":[19],"min":[0],"type":"SCALAR"},{"bufferView":4,"componentType":5126,"count":4,"max":[2.5,3,-2.5],"min":[-2.5,0,-2.5],"type":"VEC3"},{"bufferView":5,"componentType":5126,"count":4,"max":[0,0,-1],"min":[0,0,-1],"type":"VEC3"},{"bufferView":6,"componentType":5126,"count":4,"max":[0.62890625,0.76171875],"min":[0.31640625,0.57421875],"type":"VEC2"},{"bufferView":7,"componentType":5123,"count":6,"max":[3],"min":[0],"type":"SCALAR"},{"bufferView":8,"componentType":5126,"count":4,"max":[2.375,0.0625,2.375],"min":[-2.375,0.0625,-2.375],"type":"VEC3"},{"bufferView":9,"componentType":5126,"count":4,"max":[0,-1,0],"min":[0,-1,0],"type":"VEC3"},{"bufferView":10,"componentType":5126,"count":4,"max":[0.296875,0.59765625],"min":[0,0.30078125],"type":"VEC2"},{"bufferView":11,"componentType":5123,"count":6,"max":[3],"min":[0],"type":"SCALAR"},{"bufferView":12,"componentType":5126,"count":20,"max":[2.375,2.875,2.375],"min":[-2.375,0,-2.375],"type":"VEC3"},{"bufferView":13,"componentType":5126,"count":20,"max":[1,1,1],"min":[-1,0,-1],"type":"VEC3"},{"bufferView":14,"componentType":5126,"count":20,"max":[0.59765625,0.73046875],"min":[0,0],"type":"VEC2"},{"bufferView":15,"componentType":5123,"count":30,"max":[19],"min":[0],"type":"SCALAR"},{"bufferView":16,"componentType":5126,"count":280,"max":[0.3125,0.46875,0.03125],"min":[-0.3125,0.15625,-0.03125],"type":"VEC3"},{"bufferView":17,"componentType":5126,"count":280,"max":[1,1,1],"min":[-1,-1,-1],"type":"VEC3"},{"bufferView":18,"componentType":5126,"count":280,"max":[0.51171875,0.4487031102180481],"min":[0,0],"type":"VEC2"},{"bufferView":19,"componentType":5123,"count":420,"max":[279],"min":[0],"type":"SCALAR"},{"bufferView":20,"componentType":5126,"count":280,"max":[0.3125,0.46875,0.03125],"min":[-0.3125,0.15625,-0.03125],"type":"VEC3"},{"bufferView":21,"componentType":5126,"count":280,"max":[1,1,1],"min":[-1,-1,-1],"type":"VEC3"},{"bufferView":22,"componentType":5126,"count":280,"max":[0.51171875,0.4487031102180481],"min":[0,0],"type":"VEC2"},{"bufferView":23,"componentType":5123,"count":420,"max":[279],"min":[0],"type":"SCALAR"},{"bufferView":24,"componentType":5126,"count":280,"max":[0.3125,0.46875,0.03125],"min":[-0.3125,0.15625,-0.03125],"type":"VEC3"},{"bufferView":25,"componentType":5126,"count":280,"max":[1,1,1],"min":[-1,-1,-1],"type":"VEC3"},{"bufferView":26,"componentType":5126,"count":280,"max":[0.51171875,0.4487031102180481],"min":[0,0],"type":"VEC2"},{"bufferView":27,"componentType":5123,"count":420,"max":[279],"min":[0],"type":"SCALAR"},{"bufferView":28,"componentType":5126,"count":280,"max":[0.3125,0.46875,0.03125],"min":[-0.3125,0.15625,-0.03125],"type":"VEC3"},{"bufferView":29,"componentType":5126,"count":280,"max":[1,1,1],"min":[-1,-1,-1],"type":"VEC3"},{"bufferView":30,"componentType":5126,"count":280,"max":[0.51171875,0.4487031102180481],"min":[0,0],"type":"VEC2"},{"bufferView":31,"componentType":5123,"count":420,"max":[279],"min":[0],"type":"SCALAR"},{"bufferView":32,"componentType":5126,"count":552,"max":[0.11905484646558762,1.5575151443481445,0.03125],"min":[-0.11905484646558762,0,-0.03125],"type":"VEC3"},{"bufferView":33,"componentType":5126,"count":552,"max":[1,1,1],"min":[-1,-1,-1],"type":"VEC3"},{"bufferView":34,"componentType":5126,"count":552,"max":[0.359375,0.3893781304359436],"min":[0.0014859375078231096,0],"type":"VEC2"},{"bufferView":35,"componentType":5123,"count":828,"max":[551],"min":[0],"type":"SCALAR"},{"bufferView":36,"componentType":5126,"count":552,"max":[0.11905484646558762,1.5575151443481445,0.03125],"min":[-0.11905484646558762,0,-0.03125],"type":"VEC3"},{"bufferView":37,"componentType":5126,"count":552,"max":[1,1,1],"min":[-1,-1,-1],"type":"VEC3"},{"bufferView":38,"componentType":5126,"count":552,"max":[0.03125,0.375],"min":[0,0],"type":"VEC2"},{"bufferView":39,"componentType":5123,"count":828,"max":[551],"min":[0],"type":"SCALAR"},{"bufferView":40,"componentType":5126,"count":552,"max":[0.11905484646558762,1.5575151443481445,0.03125],"min":[-0.11905484646558762,0,-0.03125],"type":"VEC3"},{"bufferView":41,"componentType":5126,"count":552,"max":[1,1,1],"min":[-1,-1,-1],"type":"VEC3"},{"bufferView":42,"componentType":5126,"count":552,"max":[0.03125,0.375],"min":[0,0],"type":"VEC2"},{"bufferView":43,"componentType":5123,"count":828,"max":[551],"min":[0],"type":"SCALAR"},{"bufferView":44,"componentType":5126,"count":552,"max":[0.11905484646558762,1.3075151443481445,0.03125],"min":[-0.11905484646558762,0.25,-0.03125],"type":"VEC3"},{"bufferView":45,"componentType":5126,"count":552,"max":[1,1,1],"min":[-1,-1,-1],"type":"VEC3"},{"bufferView":46,"componentType":5126,"count":552,"max":[0.03125,0.375],"min":[0,0],"type":"VEC2"},{"bufferView":47,"componentType":5123,"count":828,"max":[551],"min":[0],"type":"SCALAR"},{"bufferView":48,"componentType":5126,"count":552,"max":[0.11905484646558762,1.2450151443481445,0.03125],"min":[-0.11905484646558762,0.3125,-0.03125],"type":"VEC3"},{"bufferView":49,"componentType":5126,"count":552,"max":[1,1,1],"min":[-1,-1,-1],"type":"VEC3"},{"bufferView":50,"componentType":5126,"count":552,"max":[0.03125,0.375],"min":[0,0],"type":"VEC2"},{"bufferView":51,"componentType":5123,"count":828,"max":[551],"min":[0],"type":"SCALAR"},{"bufferView":52,"componentType":5126,"count":7,"max":[1],"min":[0],"type":"SCALAR"},{"bufferView":53,"componentType":5126,"count":7,"max":[0.03125,0,0],"min":[-0.03125,0,0],"type":"VEC3"},{"bufferView":54,"componentType":5126,"count":7,"max":[0.6333333253860474],"min":[0],"type":"SCALAR"},{"bufferView":55,"componentType":5126,"count":7,"max":[0,0,0,1],"min":[0,-1,0,6.123234262925839e-17],"type":"VEC4"},{"bufferView":56,"componentType":5126,"count":4,"max":[1],"min":[0],"type":"SCALAR"},{"bufferView":57,"componentType":5126,"count":4,"max":[2.0625,0.8125,1.5625],"min":[-2.125,0.8125,1.5625],"type":"VEC3"},{"bufferView":58,"componentType":5126,"count":7,"max":[0.5833333134651184],"min":[0],"type":"SCALAR"},{"bufferView":59,"componentType":5126,"count":7,"max":[0,1,0,1],"min":[0,0,0,6.123234262925839e-17],"type":"VEC4"},{"bufferView":60,"componentType":5126,"count":4,"max":[1],"min":[0],"type":"SCALAR"},{"bufferView":61,"componentType":5126,"count":4,"max":[1.8125,1.3125,1.1875],"min":[-1.9375,1.3125,1.1875],"type":"VEC3"},{"bufferView":62,"componentType":5126,"count":7,"max":[0.9166666865348816],"min":[0],"type":"SCALAR"},{"bufferView":63,"componentType":5126,"count":7,"max":[0,0,0,1],"min":[0,-1,0,6.123234262925839e-17],"type":"VEC4"},{"bufferView":64,"componentType":5126,"count":4,"max":[1],"min":[0],"type":"SCALAR"},{"bufferView":65,"componentType":5126,"count":4,"max":[1.480625033378601,1.875,-1.6875],"min":[-1.8125,1.875,-1.6875],"type":"VEC3"},{"bufferView":66,"componentType":5126,"count":7,"max":[0.8999999761581421],"min":[0],"type":"SCALAR"},{"bufferView":67,"componentType":5126,"count":7,"max":[0,1,0,1],"min":[0,0,0,6.123234262925839e-17],"type":"VEC4"},{"bufferView":68,"componentType":5126,"count":4,"max":[1],"min":[0],"type":"SCALAR"},{"bufferView":69,"componentType":5126,"count":4,"max":[1.9375,0.125,-0.3125],"min":[-1.625,0.125,-0.3125],"type":"VEC3"}],"materials":[{"pbrMetallicRoughness":{"metallicFactor":0,"roughnessFactor":1,"baseColorTexture":{"index":0}},"alphaMode":"MASK","alphaCutoff":0.05,"doubleSided":true},{"pbrMetallicRoughness":{"metallicFactor":0,"roughnessFactor":1,"baseColorTexture":{"index":1}},"alphaMode":"MASK","alphaCutoff":0.05,"doubleSided":true},{"pbrMetallicRoughness":{"metallicFactor":0,"roughnessFactor":1,"baseColorTexture":{"index":2}},"alphaMode":"MASK","alphaCutoff":0.05,"doubleSided":true},{"pbrMetallicRoughness":{"metallicFactor":0,"roughnessFactor":1,"baseColorTexture":{"index":3}},"alphaMode":"MASK","alphaCutoff":0.05,"doubleSided":true},{"pbrMetallicRoughness":{"metallicFactor":0,"roughnessFactor":1,"baseColorTexture":{"index":4}},"alphaMode":"MASK","alphaCutoff":0.05,"doubleSided":true},{"pbrMetallicRoughness":{"metallicFactor":0,"roughnessFactor":1,"baseColorTexture":{"index":5}},"alphaMode":"MASK","alphaCutoff":0.05,"doubleSided":true},{"pbrMetallicRoughness":{"metallicFactor":0,"roughnessFactor":1,"baseColorTexture":{"index":6}},"alphaMode":"MASK","alphaCutoff":0.05,"doubleSided":true}],"textures":[{"sampler":0,"source":0,"name":"texture2.png"},{"sampler":1,"source":1,"name":"texture1.png"},{"sampler":2,"source":2,"name":"fish1.png"},{"sampler":3,"source":3,"name":"fish 2.png"},{"sampler":4,"source":4,"name":"fish 3.png"},{"sampler":5,"source":5,"name":"fish 4.png"},{"sampler":6,"source":6,"name":"algae.png"}],"samplers":[{"magFilter":9728,"minFilter":9728,"wrapS":33071,"wrapT":33071},{"magFilter":9728,"minFilter":9728,"wrapS":33071,"wrapT":33071},{"magFilter":9728,"minFilter":9728,"wrapS":33071,"wrapT":33071},{"magFilter":9728,"minFilter":9728,"wrapS":33071,"wrapT":33071},{"magFilter":9728,"minFilter":9728,"wrapS":33071,"wrapT":33071},{"magFilter":9728,"minFilter":9728,"wrapS":33071,"wrapT":33071},{"magFilter":9728,"minFilter":9728,"wrapS":33071,"wrapT":33071}],"images":[{"mimeType":"image/png","uri":"data:image/png;base64,"},{"mimeType":"image/png","uri":"data:image/png;base64,"},{"mimeType":"image/png","uri":"data:image/png;base64,"},{"mimeType":"image/png","uri":"data:image/png;base64,"},{"mimeType":"image/png","uri":"data:image/png;base64,"},{"mimeType":"image/png","uri":"data:image/png;base64,"},{"mimeType":"image/png","uri":"data:image/png;base64,"}],"meshes":[{"primitives":[{"mode":4,"attributes":{"POSITION":0,"NORMAL":1,"TEXCOORD_0":2},"indices":3,"material":0}]},{"primitives":[{"mode":4,"attributes":{"POSITION":4,"NORMAL":5,"TEXCOORD_0":6},"indices":7,"material":0}]},{"primitives":[{"mode":4,"attributes":{"POSITION":8,"NORMAL":9,"TEXCOORD_0":10},"indices":11,"material":1}]},{"primitives":[{"mode":4,"attributes":{"POSITION":12,"NORMAL":13,"TEXCOORD_0":14},"indices":15,"material":1}]},{"primitives":[{"mode":4,"attributes":{"POSITION":16,"NORMAL":17,"TEXCOORD_0":18},"indices":19,"material":2}]},{"primitives":[{"mode":4,"attributes":{"POSITION":20,"NORMAL":21,"TEXCOORD_0":22},"indices":23,"material":3}]},{"primitives":[{"mode":4,"attributes":{"POSITION":24,"NORMAL":25,"TEXCOORD_0":26},"indices":27,"material":4}]},{"primitives":[{"mode":4,"attributes":{"POSITION":28,"NORMAL":29,"TEXCOORD_0":30},"indices":31,"material":5}]},{"primitives":[{"mode":4,"attributes":{"POSITION":32,"NORMAL":33,"TEXCOORD_0":34},"indices":35,"material":6}]},{"primitives":[{"mode":4,"attributes":{"POSITION":36,"NORMAL":37,"TEXCOORD_0":38},"indices":39,"material":6}]},{"primitives":[{"mode":4,"attributes":{"POSITION":40,"NORMAL":41,"TEXCOORD_0":42},"indices":43,"material":6}]},{"primitives":[{"mode":4,"attributes":{"POSITION":44,"NORMAL":45,"TEXCOORD_0":46},"indices":47,"material":6}]},{"primitives":[{"mode":4,"attributes":{"POSITION":48,"NORMAL":49,"TEXCOORD_0":50},"indices":51,"material":6}]}],"animations":[{"name":"fish swim","samplers":[{"input":52,"output":53,"interpolation":"LINEAR"},{"input":54,"output":55,"interpolation":"LINEAR"},{"input":56,"output":57,"interpolation":"LINEAR"},{"input":58,"output":59,"interpolation":"LINEAR"},{"input":60,"output":61,"interpolation":"LINEAR"},{"input":62,"output":63,"interpolation":"LINEAR"},{"input":64,"output":65,"interpolation":"LINEAR"},{"input":66,"output":67,"interpolation":"LINEAR"},{"input":68,"output":69,"interpolation":"LINEAR"}],"channels":[{"sampler":0,"target":{"node":20,"path":"translation"}},{"sampler":1,"target":{"node":7,"path":"rotation"}},{"sampler":2,"target":{"node":7,"path":"translation"}},{"sampler":3,"target":{"node":9,"path":"rotation"}},{"sampler":4,"target":{"node":9,"path":"translation"}},{"sampler":5,"target":{"node":11,"path":"rotation"}},{"sampler":6,"target":{"node":11,"path":"translation"}},{"sampler":7,"target":{"node":13,"path":"rotation"}},{"sampler":8,"target":{"node":13,"path":"translation"}}]}]}