{"asset":{"version":"2.0","generator":"Blockbench 4.12.2 glTF exporter"},"scenes":[{"nodes":[2],"name":"blockbench_export"}],"scene":0,"nodes":[{"translation":[0.875,1.1875,-0.875],"name":"sphere","mesh":0},{"translation":[0.875,-0.6875,-0.875],"name":"cuboid","mesh":1},{"children":[0,1]}],"bufferViews":[{"buffer":0,"byteOffset":0,"byteLength":1824,"target":34962,"byteStride":12},{"buffer":0,"byteOffset":1824,"byteLength":1824,"target":34962,"byteStride":12},{"buffer":0,"byteOffset":3648,"byteLength":1216,"target":34962,"byteStride":8},{"buffer":0,"byteOffset":4864,"byteLength":420,"target":34963},{"buffer":0,"byteOffset":5284,"byteLength":672,"target":34962,"byteStride":12},{"buffer":0,"byteOffset":5956,"byteLength":672,"target":34962,"byteStride":12},{"buffer":0,"byteOffset":6628,"byteLength":448,"target":34962,"byteStride":8},{"buffer":0,"byteOffset":7076,"byteLength":168,"target":34963}],"buffers":[{"byteLength":7244,"uri":"data:application/octet-stream;base64,"}],"accessors":[{"bufferView":0,"componentType":5126,"count":152,"max":[0.891145646572113,0.8450623154640198,0.8995190262794495],"min":[-0.875,-0.029937706887722015,-0.875],"type":"VEC3"},{"bufferView":1,"componentType":5126,"count":152,"max":[0.9935621023178101,1,0.9978790283203125],"min":[-0.9659712910652161,-0.9658803343772888,-0.9660743474960327],"type":"VEC3"},{"bufferView":2,"componentType":5126,"count":152,"max":[0.5701489448547363,0.4375],"min":[0.0014341927599161863,0],"type":"VEC2"},{"bufferView":3,"componentType":5123,"count":210,"max":[151],"min":[0],"type":"SCALAR"},{"bufferView":4,"componentType":5126,"count":56,"max":[0.3125,2.033245086669922,0.3125],"min":[-0.39696913957595825,0.6875,-0.3125],"type":"VEC3"},{"bufferView":5,"componentType":5126,"count":56,"max":[0.9943339228630066,0.9762960076332092,1],"min":[-0.9966279864311218,-1,-1],"type":"VEC3"},{"bufferView":6,"componentType":5126,"count":56,"max":[0.5,0.6994421482086182],"min":[0,0],"type":"VEC2"},{"bufferView":7,"componentType":5123,"count":84,"max":[55],"min":[0],"type":"SCALAR"}],"materials":[{"pbrMetallicRoughness":{"metallicFactor":0,"roughnessFactor":1,"baseColorTexture":{"index":0}},"alphaMode":"MASK","alphaCutoff":0.05,"doubleSided":true},{"pbrMetallicRoughness":{"metallicFactor":0,"roughnessFactor":1,"baseColorTexture":{"index":1}},"alphaMode":"MASK","alphaCutoff":0.05,"doubleSided":true}],"textures":[{"sampler":0,"source":0,"name":"pink_coral.png"},{"sampler":1,"source":1,"name":"stembb.png"}],"samplers":[{"magFilter":9728,"minFilter":9728,"wrapS":33071,"wrapT":33071},{"magFilter":9728,"minFilter":9728,"wrapS":33071,"wrapT":33071}],"images":[{"mimeType":"image/png","uri":"data:image/png;base64,"},{"mimeType":"image/png","uri":"data:image/png;base64,"}],"meshes":[{"primitives":[{"mode":4,"attributes":{"POSITION":0,"NORMAL":1,"TEXCOORD_0":2},"indices":3,"material":0}]},{"primitives":[{"mode":4,"attributes":{"POSITION":4,"NORMAL":5,"TEXCOORD_0":6},"indices":7,"material":1}]}]}