{"asset":{"version":"2.0","generator":"Blockbench 4.12.2 glTF exporter"},"scenes":[{"nodes":[5],"name":"blockbench_export"}],"scene":0,"nodes":[{"translation":[3.9625,0,-3.9375],"name":"baranda_esquina","mesh":0},{"translation":[3.9625,0.78125,-4],"name":"metal_thingy_1","mesh":1},{"translation":[0,0.78125,-0.09375],"name":"metal_thingy_3","mesh":2},{"translation":[3.9625,0.09375,-4],"name":"metal_thingy_2","mesh":3},{"translation":[0,0.09375,-0.09375],"name":"metal_thingy_4","mesh":4},{"children":[0,1,2,3,4]}],"bufferViews":[{"buffer":0,"byteOffset":0,"byteLength":19104,"target":34962,"byteStride":12},{"buffer":0,"byteOffset":19104,"byteLength":19104,"target":34962,"byteStride":12},{"buffer":0,"byteOffset":38208,"byteLength":12736,"target":34962,"byteStride":8},{"buffer":0,"byteOffset":50944,"byteLength":4776,"target":34963},{"buffer":0,"byteOffset":55720,"byteLength":288,"target":34962,"byteStride":12},{"buffer":0,"byteOffset":56008,"byteLength":288,"target":34962,"byteStride":12},{"buffer":0,"byteOffset":56296,"byteLength":192,"target":34962,"byteStride":8},{"buffer":0,"byteOffset":56488,"byteLength":72,"target":34963},{"buffer":0,"byteOffset":56560,"byteLength":288,"target":34962,"byteStride":12},{"buffer":0,"byteOffset":56848,"byteLength":288,"target":34962,"byteStride":12},{"buffer":0,"byteOffset":57136,"byteLength":192,"target":34962,"byteStride":8},{"buffer":0,"byteOffset":57328,"byteLength":72,"target":34963},{"buffer":0,"byteOffset":57400,"byteLength":288,"target":34962,"byteStride":12},{"buffer":0,"byteOffset":57688,"byteLength":288,"target":34962,"byteStride":12},{"buffer":0,"byteOffset":57976,"byteLength":192,"target":34962,"byteStride":8},{"buffer":0,"byteOffset":58168,"byteLength":72,"target":34963},{"buffer":0,"byteOffset":58240,"byteLength":288,"target":34962,"byteStride":12},{"buffer":0,"byteOffset":58528,"byteLength":288,"target":34962,"byteStride":12},{"buffer":0,"byteOffset":58816,"byteLength":192,"target":34962,"byteStride":8},{"buffer":0,"byteOffset":59008,"byteLength":72,"target":34963}],"buffers":[{"byteLength":59080,"uri":"data:application/octet-stream;base64,"}],"accessors":[{"bufferView":0,"componentType":5126,"count":1592,"max":[0.0625,1,3.9368584156036377],"min":[-3.960552930831909,0,-0.0625],"type":"VEC3"},{"bufferView":1,"componentType":5126,"count":1592,"max":[1,1,1],"min":[-1,-1,-1],"type":"VEC3"},{"bufferView":2,"componentType":5126,"count":1592,"max":[0.8705812692642212,0.8671070337295532],"min":[0,0],"type":"VEC2"},{"bufferView":3,"componentType":5123,"count":2388,"max":[1591],"min":[0],"type":"SCALAR"},{"bufferView":4,"componentType":5126,"count":24,"max":[0.03125,0.0625,0.03125],"min":[-0.03125,0,-0.03125],"type":"VEC3"},{"bufferView":5,"componentType":5126,"count":24,"max":[1,1,1],"min":[-1,-1,-1],"type":"VEC3"},{"bufferView":6,"componentType":5126,"count":24,"max":[0.625,0.625],"min":[0,0],"type":"VEC2"},{"bufferView":7,"componentType":5123,"count":36,"max":[23],"min":[0],"type":"SCALAR"},{"bufferView":8,"componentType":5126,"count":24,"max":[0.03125,0.0625,0.03125],"min":[-0.03125,0,-0.03125],"type":"VEC3"},{"bufferView":9,"componentType":5126,"count":24,"max":[1,1,1],"min":[-1,-1,-1],"type":"VEC3"},{"bufferView":10,"componentType":5126,"count":24,"max":[0.125,0.125],"min":[0,0],"type":"VEC2"},{"bufferView":11,"componentType":5123,"count":36,"max":[23],"min":[0],"type":"SCALAR"},{"bufferView":12,"componentType":5126,"count":24,"max":[0.03125,0.0625,0.03125],"min":[-0.03125,0,-0.03125],"type":"VEC3"},{"bufferView":13,"componentType":5126,"count":24,"max":[1,1,1],"min":[-1,-1,-1],"type":"VEC3"},{"bufferView":14,"componentType":5126,"count":24,"max":[0.125,0.125],"min":[0,0],"type":"VEC2"},{"bufferView":15,"componentType":5123,"count":36,"max":[23],"min":[0],"type":"SCALAR"},{"bufferView":16,"componentType":5126,"count":24,"max":[0.03125,0.0625,0.03125],"min":[-0.03125,0,-0.03125],"type":"VEC3"},{"bufferView":17,"componentType":5126,"count":24,"max":[1,1,1],"min":[-1,-1,-1],"type":"VEC3"},{"bufferView":18,"componentType":5126,"count":24,"max":[0.125,0.125],"min":[0,0],"type":"VEC2"},{"bufferView":19,"componentType":5123,"count":36,"max":[23],"min":[0],"type":"SCALAR"}],"materials":[{"pbrMetallicRoughness":{"metallicFactor":0,"roughnessFactor":1,"baseColorTexture":{"index":0}},"alphaMode":"MASK","alphaCutoff":0.05,"doubleSided":true},{"pbrMetallicRoughness":{"metallicFactor":0,"roughnessFactor":1,"baseColorTexture":{"index":1}},"alphaMode":"MASK","alphaCutoff":0.05,"doubleSided":true}],"textures":[{"sampler":0,"source":0,"name":"baranda_esquina"},{"sampler":1,"source":1,"name":"metal_thingy"}],"samplers":[{"magFilter":9728,"minFilter":9728,"wrapS":33071,"wrapT":33071},{"magFilter":9728,"minFilter":9728,"wrapS":33071,"wrapT":33071}],"images":[{"mimeType":"image/png","uri":"data:image/png;base64,"},{"mimeType":"image/png","uri":"data:image/png;base64,"}],"meshes":[{"primitives":[{"mode":4,"attributes":{"POSITION":0,"NORMAL":1,"TEXCOORD_0":2},"indices":3,"material":0}]},{"primitives":[{"mode":4,"attributes":{"POSITION":4,"NORMAL":5,"TEXCOORD_0":6},"indices":7,"material":1}]},{"primitives":[{"mode":4,"attributes":{"POSITION":8,"NORMAL":9,"TEXCOORD_0":10},"indices":11,"material":1}]},{"primitives":[{"mode":4,"attributes":{"POSITION":12,"NORMAL":13,"TEXCOORD_0":14},"indices":15,"material":1}]},{"primitives":[{"mode":4,"attributes":{"POSITION":16,"NORMAL":17,"TEXCOORD_0":18},"indices":19,"material":1}]}]}