{"asset":{"version":"2.0","generator":"Blockbench 4.12.2 glTF exporter"},"scenes":[{"nodes":[22],"name":"blockbench_export"}],"scene":0,"nodes":[{"name":"glass pane","mesh":0},{"name":"glass pane_selection","mesh":1},{"name":"glass pane_selection","mesh":2},{"translation":[3,0,-3],"name":"glass","children":[0,1,2]},{"name":"water block","mesh":3},{"name":"cuboid","mesh":4},{"translation":[3,0,-3],"name":"water","children":[4,5]},{"rotation":[0,-1,0,6.123233995736766e-17],"name":"fish 1","mesh":5},{"translation":[-1.4375,0.8125,1.5625],"name":"fish 1","children":[7]},{"name":"fish 2","mesh":6},{"translation":[1.3125,1.3125,1.1875],"name":"fish 2","children":[9]},{"rotation":[0,-1,0,6.123233995736766e-17],"name":"fish 3","mesh":7},{"translation":[0.8125,1.875,-1.6875],"name":"fish 3","children":[11]},{"name":"fish 4","mesh":8},{"translation":[-0.6875,0.125,-0.3125],"name":"fish 4","children":[13]},{"translation":[3,0,-3],"name":"fish","children":[8,10,12,14]},{"translation":[2,0,0.125],"name":"cuboid","mesh":9},{"translation":[-0.4375,0,-1.1875],"name":"cuboid","mesh":10},{"translation":[-2.0625,0,0.8125],"name":"cuboid","mesh":11},{"translation":[0,-0.25,1.6875],"name":"cuboid","mesh":12},{"translation":[0.9375,-0.3125,-0.5625],"name":"cuboid","mesh":13},{"translation":[3,0,-3],"name":"algae","children":[16,17,18,19,20]},{"children":[3,6,15,21]}],"bufferViews":[{"buffer":0,"byteOffset":0,"byteLength":192,"target":34962,"byteStride":12},{"buffer":0,"byteOffset":192,"byteLength":192,"target":34962,"byteStride":12},{"buffer":0,"byteOffset":384,"byteLength":128,"target":34962,"byteStride":8},{"buffer":0,"byteOffset":512,"byteLength":48,"target":34963},{"buffer":0,"byteOffset":560,"byteLength":48,"target":34962,"byteStride":12},{"buffer":0,"byteOffset":608,"byteLength":48,"target":34962,"byteStride":12},{"buffer":0,"byteOffset":656,"byteLength":32,"target":34962,"byteStride":8},{"buffer":0,"byteOffset":688,"byteLength":12,"target":34963},{"buffer":0,"byteOffset":700,"byteLength":48,"target":34962,"byteStride":12},{"buffer":0,"byteOffset":748,"byteLength":48,"target":34962,"byteStride":12},{"buffer":0,"byteOffset":796,"byteLength":32,"target":34962,"byteStride":8},{"buffer":0,"byteOffset":828,"byteLength":12,"target":34963},{"buffer":0,"byteOffset":840,"byteLength":240,"target":34962,"byteStride":12},{"buffer":0,"byteOffset":1080,"byteLength":240,"target":34962,"byteStride":12},{"buffer":0,"byteOffset":1320,"byteLength":160,"target":34962,"byteStride":8},{"buffer":0,"byteOffset":1480,"byteLength":60,"target":34963},{"buffer":0,"byteOffset":1540,"byteLength":288,"target":34962,"byteStride":12},{"buffer":0,"byteOffset":1828,"byteLength":288,"target":34962,"byteStride":12},{"buffer":0,"byteOffset":2116,"byteLength":192,"target":34962,"byteStride":8},{"buffer":0,"byteOffset":2308,"byteLength":72,"target":34963},{"buffer":0,"byteOffset":2380,"byteLength":3360,"target":34962,"byteStride":12},{"buffer":0,"byteOffset":5740,"byteLength":3360,"target":34962,"byteStride":12},{"buffer":0,"byteOffset":9100,"byteLength":2240,"target":34962,"byteStride":8},{"buffer":0,"byteOffset":11340,"byteLength":840,"target":34963},{"buffer":0,"byteOffset":12180,"byteLength":3360,"target":34962,"byteStride":12},{"buffer":0,"byteOffset":15540,"byteLength":3360,"target":34962,"byteStride":12},{"buffer":0,"byteOffset":18900,"byteLength":2240,"target":34962,"byteStride":8},{"buffer":0,"byteOffset":21140,"byteLength":840,"target":34963},{"buffer":0,"byteOffset":21980,"byteLength":3360,"target":34962,"byteStride":12},{"buffer":0,"byteOffset":25340,"byteLength":3360,"target":34962,"byteStride":12},{"buffer":0,"byteOffset":28700,"byteLength":2240,"target":34962,"byteStride":8},{"buffer":0,"byteOffset":30940,"byteLength":840,"target":34963},{"buffer":0,"byteOffset":31780,"byteLength":3360,"target":34962,"byteStride":12},{"buffer":0,"byteOffset":35140,"byteLength":3360,"target":34962,"byteStride":12},{"buffer":0,"byteOffset":38500,"byteLength":2240,"target":34962,"byteStride":8},{"buffer":0,"byteOffset":40740,"byteLength":840,"target":34963},{"buffer":0,"byteOffset":41580,"byteLength":6624,"target":34962,"byteStride":12},{"buffer":0,"byteOffset":48204,"byteLength":6624,"target":34962,"byteStride":12},{"buffer":0,"byteOffset":54828,"byteLength":4416,"target":34962,"byteStride":8},{"buffer":0,"byteOffset":59244,"byteLength":1656,"target":34963},{"buffer":0,"byteOffset":60900,"byteLength":6624,"target":34962,"byteStride":12},{"buffer":0,"byteOffset":67524,"byteLength":6624,"target":34962,"byteStride":12},{"buffer":0,"byteOffset":74148,"byteLength":4416,"target":34962,"byteStride":8},{"buffer":0,"byteOffset":78564,"byteLength":1656,"target":34963},{"buffer":0,"byteOffset":80220,"byteLength":6624,"target":34962,"byteStride":12},{"buffer":0,"byteOffset":86844,"byteLength":6624,"target":34962,"byteStride":12},{"buffer":0,"byteOffset":93468,"byteLength":4416,"target":34962,"byteStride":8},{"buffer":0,"byteOffset":97884,"byteLength":1656,"target":34963},{"buffer":0,"byteOffset":99540,"byteLength":6624,"target":34962,"byteStride":12},{"buffer":0,"byteOffset":106164,"byteLength":6624,"target":34962,"byteStride":12},{"buffer":0,"byteOffset":112788,"byteLength":4416,"target":34962,"byteStride":8},{"buffer":0,"byteOffset":117204,"byteLength":1656,"target":34963},{"buffer":0,"byteOffset":118860,"byteLength":6624,"target":34962,"byteStride":12},{"buffer":0,"byteOffset":125484,"byteLength":6624,"target":34962,"byteStride":12},{"buffer":0,"byteOffset":132108,"byteLength":4416,"target":34962,"byteStride":8},{"buffer":0,"byteOffset":136524,"byteLength":1656,"target":34963},{"buffer":0,"byteOffset":138180,"byteLength":28},{"buffer":0,"byteOffset":138208,"byteLength":84},{"buffer":0,"byteOffset":138292,"byteLength":28},{"buffer":0,"byteOffset":138320,"byteLength":112},{"buffer":0,"byteOffset":138432,"byteLength":16},{"buffer":0,"byteOffset":138448,"byteLength":48},{"buffer":0,"byteOffset":138496,"byteLength":28},{"buffer":0,"byteOffset":138524,"byteLength":112},{"buffer":0,"byteOffset":138636,"byteLength":16},{"buffer":0,"byteOffset":138652,"byteLength":48},{"buffer":0,"byteOffset":138700,"byteLength":28},{"buffer":0,"byteOffset":138728,"byteLength":112},{"buffer":0,"byteOffset":138840,"byteLength":16},{"buffer":0,"byteOffset":138856,"byteLength":48},{"buffer":0,"byteOffset":138904,"byteLength":28},{"buffer":0,"byteOffset":138932,"byteLength":112},{"buffer":0,"byteOffset":139044,"byteLength":16},{"buffer":0,"byteOffset":139060,"byteLength":48}],"buffers":[{"byteLength":139108,"uri":"data:application/octet-stream;base64,"}],"accessors":[{"bufferView":0,"componentType":5126,"count":16,"max":[3,3,3],"min":[-3,0,-3],"type":"VEC3"},{"bufferView":1,"componentType":5126,"count":16,"max":[1,0,1],"min":[-1,-1,0],"type":"VEC3"},{"bufferView":2,"componentType":5126,"count":16,"max":[0.62890625,0.62890625],"min":[0,0],"type":"VEC2"},{"bufferView":3,"componentType":5123,"count":24,"max":[15],"min":[0],"type":"SCALAR"},{"bufferView":4,"componentType":5126,"count":4,"max":[3,3,3],"min":[-3,3,-3],"type":"VEC3"},{"bufferView":5,"componentType":5126,"count":4,"max":[0,1,0],"min":[0,1,0],"type":"VEC3"},{"bufferView":6,"componentType":5126,"count":4,"max":[0.3125,0.3125],"min":[0,0],"type":"VEC2"},{"bufferView":7,"componentType":5123,"count":6,"max":[3],"min":[0],"type":"SCALAR"},{"bufferView":8,"componentType":5126,"count":4,"max":[3,3,-3],"min":[-3,0,-3],"type":"VEC3"},{"bufferView":9,"componentType":5126,"count":4,"max":[0,0,-1],"min":[0,0,-1],"type":"VEC3"},{"bufferView":10,"componentType":5126,"count":4,"max":[0.62890625,0.76171875],"min":[0.31640625,0.57421875],"type":"VEC2"},{"bufferView":11,"componentType":5123,"count":6,"max":[3],"min":[0],"type":"SCALAR"},{"bufferView":12,"componentType":5126,"count":20,"max":[2.90625,2.875,2.90625],"min":[-2.90625,-2.220446049250313e-16,-2.90625],"type":"VEC3"},{"bufferView":13,"componentType":5126,"count":20,"max":[1,1,1],"min":[-1,0,-1],"type":"VEC3"},{"bufferView":14,"componentType":5126,"count":20,"max":[0.59765625,0.73046875],"min":[0,0],"type":"VEC2"},{"bufferView":15,"componentType":5123,"count":30,"max":[19],"min":[0],"type":"SCALAR"},{"bufferView":16,"componentType":5126,"count":24,"max":[2.90625,0.125,2.90625],"min":[-2.90625,0,-2.90625],"type":"VEC3"},{"bufferView":17,"componentType":5126,"count":24,"max":[1,1,1],"min":[-1,-1,-1],"type":"VEC3"},{"bufferView":18,"componentType":5126,"count":24,"max":[0.75390625,0.75390625],"min":[0,0],"type":"VEC2"},{"bufferView":19,"componentType":5123,"count":36,"max":[23],"min":[0],"type":"SCALAR"},{"bufferView":20,"componentType":5126,"count":280,"max":[0.3125,0.46875,0.03125],"min":[-0.3125,0.15625,-0.03125],"type":"VEC3"},{"bufferView":21,"componentType":5126,"count":280,"max":[1,1,1],"min":[-1,-1,-1],"type":"VEC3"},{"bufferView":22,"componentType":5126,"count":280,"max":[0.51171875,0.4487031102180481],"min":[0,0],"type":"VEC2"},{"bufferView":23,"componentType":5123,"count":420,"max":[279],"min":[0],"type":"SCALAR"},{"bufferView":24,"componentType":5126,"count":280,"max":[0.3125,0.46875,0.03125],"min":[-0.3125,0.15625,-0.03125],"type":"VEC3"},{"bufferView":25,"componentType":5126,"count":280,"max":[1,1,1],"min":[-1,-1,-1],"type":"VEC3"},{"bufferView":26,"componentType":5126,"count":280,"max":[0.51171875,0.4487031102180481],"min":[0,0],"type":"VEC2"},{"bufferView":27,"componentType":5123,"count":420,"max":[279],"min":[0],"type":"SCALAR"},{"bufferView":28,"componentType":5126,"count":280,"max":[0.3125,0.46875,0.03125],"min":[-0.3125,0.15625,-0.03125],"type":"VEC3"},{"bufferView":29,"componentType":5126,"count":280,"max":[1,1,1],"min":[-1,-1,-1],"type":"VEC3"},{"bufferView":30,"componentType":5126,"count":280,"max":[0.51171875,0.4487031102180481],"min":[0,0],"type":"VEC2"},{"bufferView":31,"componentType":5123,"count":420,"max":[279],"min":[0],"type":"SCALAR"},{"bufferView":32,"componentType":5126,"count":280,"max":[0.3125,0.46875,0.03125],"min":[-0.3125,0.15625,-0.03125],"type":"VEC3"},{"bufferView":33,"componentType":5126,"count":280,"max":[1,1,1],"min":[-1,-1,-1],"type":"VEC3"},{"bufferView":34,"componentType":5126,"count":280,"max":[0.51171875,0.4487031102180481],"min":[0,0],"type":"VEC2"},{"bufferView":35,"componentType":5123,"count":420,"max":[279],"min":[0],"type":"SCALAR"},{"bufferView":36,"componentType":5126,"count":552,"max":[0.11905484646558762,1.5575151443481445,0.03125],"min":[-0.11905484646558762,0,-0.03125],"type":"VEC3"},{"bufferView":37,"componentType":5126,"count":552,"max":[1,1,1],"min":[-1,-1,-1],"type":"VEC3"},{"bufferView":38,"componentType":5126,"count":552,"max":[0.359375,0.3893781304359436],"min":[0.0014859375078231096,0],"type":"VEC2"},{"bufferView":39,"componentType":5123,"count":828,"max":[551],"min":[0],"type":"SCALAR"},{"bufferView":40,"componentType":5126,"count":552,"max":[0.11905484646558762,1.5575151443481445,0.03125],"min":[-0.11905484646558762,0,-0.03125],"type":"VEC3"},{"bufferView":41,"componentType":5126,"count":552,"max":[1,1,1],"min":[-1,-1,-1],"type":"VEC3"},{"bufferView":42,"componentType":5126,"count":552,"max":[0.03125,0.375],"min":[0,0],"type":"VEC2"},{"bufferView":43,"componentType":5123,"count":828,"max":[551],"min":[0],"type":"SCALAR"},{"bufferView":44,"componentType":5126,"count":552,"max":[0.11905484646558762,1.5575151443481445,0.03125],"min":[-0.11905484646558762,0,-0.03125],"type":"VEC3"},{"bufferView":45,"componentType":5126,"count":552,"max":[1,1,1],"min":[-1,-1,-1],"type":"VEC3"},{"bufferView":46,"componentType":5126,"count":552,"max":[0.03125,0.375],"min":[0,0],"type":"VEC2"},{"bufferView":47,"componentType":5123,"count":828,"max":[551],"min":[0],"type":"SCALAR"},{"bufferView":48,"componentType":5126,"count":552,"max":[0.11905484646558762,1.3075151443481445,0.03125],"min":[-0.11905484646558762,0.25,-0.03125],"type":"VEC3"},{"bufferView":49,"componentType":5126,"count":552,"max":[1,1,1],"min":[-1,-1,-1],"type":"VEC3"},{"bufferView":50,"componentType":5126,"count":552,"max":[0.03125,0.375],"min":[0,0],"type":"VEC2"},{"bufferView":51,"componentType":5123,"count":828,"max":[551],"min":[0],"type":"SCALAR"},{"bufferView":52,"componentType":5126,"count":552,"max":[0.11905484646558762,1.2450151443481445,0.03125],"min":[-0.11905484646558762,0.3125,-0.03125],"type":"VEC3"},{"bufferView":53,"componentType":5126,"count":552,"max":[1,1,1],"min":[-1,-1,-1],"type":"VEC3"},{"bufferView":54,"componentType":5126,"count":552,"max":[0.03125,0.375],"min":[0,0],"type":"VEC2"},{"bufferView":55,"componentType":5123,"count":828,"max":[551],"min":[0],"type":"SCALAR"},{"bufferView":56,"componentType":5126,"count":7,"max":[1],"min":[0],"type":"SCALAR"},{"bufferView":57,"componentType":5126,"count":7,"max":[3.03125,0,-3],"min":[2.96875,0,-3],"type":"VEC3"},{"bufferView":58,"componentType":5126,"count":7,"max":[0.6333333253860474],"min":[0],"type":"SCALAR"},{"bufferView":59,"componentType":5126,"count":7,"max":[0,0,0,1],"min":[0,-1,0,6.123234262925839e-17],"type":"VEC4"},{"bufferView":60,"componentType":5126,"count":4,"max":[1],"min":[0],"type":"SCALAR"},{"bufferView":61,"componentType":5126,"count":4,"max":[2.0625,0.8125,1.5625],"min":[-2.125,0.8125,1.5625],"type":"VEC3"},{"bufferView":62,"componentType":5126,"count":7,"max":[0.5833333134651184],"min":[0],"type":"SCALAR"},{"bufferView":63,"componentType":5126,"count":7,"max":[0,1,0,1],"min":[0,0,0,6.123234262925839e-17],"type":"VEC4"},{"bufferView":64,"componentType":5126,"count":4,"max":[1],"min":[0],"type":"SCALAR"},{"bufferView":65,"componentType":5126,"count":4,"max":[1.8125,1.3125,1.1875],"min":[-1.9375,1.3125,1.1875],"type":"VEC3"},{"bufferView":66,"componentType":5126,"count":7,"max":[0.9166666865348816],"min":[0],"type":"SCALAR"},{"bufferView":67,"componentType":5126,"count":7,"max":[0,0,0,1],"min":[0,-1,0,6.123234262925839e-17],"type":"VEC4"},{"bufferView":68,"componentType":5126,"count":4,"max":[1],"min":[0],"type":"SCALAR"},{"bufferView":69,"componentType":5126,"count":4,"max":[1.480625033378601,1.875,-1.6875],"min":[-1.8125,1.875,-1.6875],"type":"VEC3"},{"bufferView":70,"componentType":5126,"count":7,"max":[0.8999999761581421],"min":[0],"type":"SCALAR"},{"bufferView":71,"componentType":5126,"count":7,"max":[0,1,0,1],"min":[0,0,0,6.123234262925839e-17],"type":"VEC4"},{"bufferView":72,"componentType":5126,"count":4,"max":[1],"min":[0],"type":"SCALAR"},{"bufferView":73,"componentType":5126,"count":4,"max":[1.9375,0.125,-0.3125],"min":[-1.625,0.125,-0.3125],"type":"VEC3"}],"materials":[{"pbrMetallicRoughness":{"metallicFactor":0,"roughnessFactor":1,"baseColorTexture":{"index":0}},"alphaMode":"MASK","alphaCutoff":0.05,"doubleSided":true},{"pbrMetallicRoughness":{"metallicFactor":0,"roughnessFactor":1,"baseColorTexture":{"index":1}},"alphaMode":"MASK","alphaCutoff":0.05,"doubleSided":true},{"pbrMetallicRoughness":{"metallicFactor":0,"roughnessFactor":1,"baseColorTexture":{"index":2}},"alphaMode":"MASK","alphaCutoff":0.05,"doubleSided":true},{"pbrMetallicRoughness":{"metallicFactor":0,"roughnessFactor":1,"baseColorTexture":{"index":3}},"alphaMode":"MASK","alphaCutoff":0.05,"doubleSided":true},{"pbrMetallicRoughness":{"metallicFactor":0,"roughnessFactor":1,"baseColorTexture":{"index":4}},"alphaMode":"MASK","alphaCutoff":0.05,"doubleSided":true},{"pbrMetallicRoughness":{"metallicFactor":0,"roughnessFactor":1,"baseColorTexture":{"index":5}},"alphaMode":"MASK","alphaCutoff":0.05,"doubleSided":true},{"pbrMetallicRoughness":{"metallicFactor":0,"roughnessFactor":1,"baseColorTexture":{"index":6}},"alphaMode":"MASK","alphaCutoff":0.05,"doubleSided":true},{"pbrMetallicRoughness":{"metallicFactor":0,"roughnessFactor":1,"baseColorTexture":{"index":7}},"alphaMode":"MASK","alphaCutoff":0.05,"doubleSided":true}],"textures":[{"sampler":0,"source":0,"name":"texture2.png"},{"sampler":1,"source":1,"name":"texture1.png"},{"sampler":2,"source":2,"name":"sand"},{"sampler":3,"source":3,"name":"fish1.png"},{"sampler":4,"source":4,"name":"fish 2.png"},{"sampler":5,"source":5,"name":"fish 3.png"},{"sampler":6,"source":6,"name":"fish 4.png"},{"sampler":7,"source":7,"name":"algae.png"}],"samplers":[{"magFilter":9728,"minFilter":9728,"wrapS":33071,"wrapT":33071},{"magFilter":9728,"minFilter":9728,"wrapS":33071,"wrapT":33071},{"magFilter":9728,"minFilter":9728,"wrapS":33071,"wrapT":33071},{"magFilter":9728,"minFilter":9728,"wrapS":33071,"wrapT":33071},{"magFilter":9728,"minFilter":9728,"wrapS":33071,"wrapT":33071},{"magFilter":9728,"minFilter":9728,"wrapS":33071,"wrapT":33071},{"magFilter":9728,"minFilter":9728,"wrapS":33071,"wrapT":33071},{"magFilter":9728,"minFilter":9728,"wrapS":33071,"wrapT":33071}],"images":[{"mimeType":"image/png","uri":"data:image/png;base64,"},{"mimeType":"image/png","uri":"data:image/png;base64,"},{"mimeType":"image/png","uri":"data:image/png;base64,"},{"mimeType":"image/png","uri":"data:image/png;base64,"},{"mimeType":"image/png","uri":"data:image/png;base64,"},{"mimeType":"image/png","uri":"data:image/png;base64,"},{"mimeType":"image/png","uri":"data:image/png;base64,"},{"mimeType":"image/png","uri":"data:image/png;base64,"}],"meshes":[{"primitives":[{"mode":4,"attributes":{"POSITION":0,"NORMAL":1,"TEXCOORD_0":2},"indices":3,"material":0}]},{"primitives":[{"mode":4,"attributes":{"POSITION":4,"NORMAL":5,"TEXCOORD_0":6},"indices":7,"material":0}]},{"primitives":[{"mode":4,"attributes":{"POSITION":8,"NORMAL":9,"TEXCOORD_0":10},"indices":11,"material":0}]},{"primitives":[{"mode":4,"attributes":{"POSITION":12,"NORMAL":13,"TEXCOORD_0":14},"indices":15,"material":1}]},{"primitives":[{"mode":4,"attributes":{"POSITION":16,"NORMAL":17,"TEXCOORD_0":18},"indices":19,"material":2}]},{"primitives":[{"mode":4,"attributes":{"POSITION":20,"NORMAL":21,"TEXCOORD_0":22},"indices":23,"material":3}]},{"primitives":[{"mode":4,"attributes":{"POSITION":24,"NORMAL":25,"TEXCOORD_0":26},"indices":27,"material":4}]},{"primitives":[{"mode":4,"attributes":{"POSITION":28,"NORMAL":29,"TEXCOORD_0":30},"indices":31,"material":5}]},{"primitives":[{"mode":4,"attributes":{"POSITION":32,"NORMAL":33,"TEXCOORD_0":34},"indices":35,"material":6}]},{"primitives":[{"mode":4,"attributes":{"POSITION":36,"NORMAL":37,"TEXCOORD_0":38},"indices":39,"material":7}]},{"primitives":[{"mode":4,"attributes":{"POSITION":40,"NORMAL":41,"TEXCOORD_0":42},"indices":43,"material":7}]},{"primitives":[{"mode":4,"attributes":{"POSITION":44,"NORMAL":45,"TEXCOORD_0":46},"indices":47,"material":7}]},{"primitives":[{"mode":4,"attributes":{"POSITION":48,"NORMAL":49,"TEXCOORD_0":50},"indices":51,"material":7}]},{"primitives":[{"mode":4,"attributes":{"POSITION":52,"NORMAL":53,"TEXCOORD_0":54},"indices":55,"material":7}]}],"animations":[{"name":"fish swim","samplers":[{"input":56,"output":57,"interpolation":"LINEAR"},{"input":58,"output":59,"interpolation":"LINEAR"},{"input":60,"output":61,"interpolation":"LINEAR"},{"input":62,"output":63,"interpolation":"LINEAR"},{"input":64,"output":65,"interpolation":"LINEAR"},{"input":66,"output":67,"interpolation":"LINEAR"},{"input":68,"output":69,"interpolation":"LINEAR"},{"input":70,"output":71,"interpolation":"LINEAR"},{"input":72,"output":73,"interpolation":"LINEAR"}],"channels":[{"sampler":0,"target":{"node":21,"path":"translation"}},{"sampler":1,"target":{"node":8,"path":"rotation"}},{"sampler":2,"target":{"node":8,"path":"translation"}},{"sampler":3,"target":{"node":10,"path":"rotation"}},{"sampler":4,"target":{"node":10,"path":"translation"}},{"sampler":5,"target":{"node":12,"path":"rotation"}},{"sampler":6,"target":{"node":12,"path":"translation"}},{"sampler":7,"target":{"node":14,"path":"rotation"}},{"sampler":8,"target":{"node":14,"path":"translation"}}]}]}